<svg id="Vrstva_1" data-name="Vrstva 1" xmlns="http://www.w3.org/2000/svg" viewBox="0 0 429.051 54.875"><defs><style>.cls-1{fill:#0863ac;}.cls-2{fill:#f2ca4e;}</style></defs><polygon class="cls-1" points="50.917 0.167 37.72 33.096 37.549 33.096 24.947 0.167 0 0.167 0 49.702 15.496 49.702 15.154 11.663 15.325 11.663 29.802 49.702 44.361 49.702 59.517 11.663 59.688 11.663 59.432 49.702 74.928 49.702 74.928 0.167 50.917 0.167"/><path class="cls-1" d="M115.292,23.3a19.465,19.465,0,0,0-9.282-2.058c-6.64,0-11.75,3.831-11.75,10.219,0,5.89,5.961,9.721,12.6,9.721A24.536,24.536,0,0,0,116.4,39.41l.342,9.509a48.979,48.979,0,0,1-12.517,1.633c-14.644,0-25.8-7.1-25.8-19.3,0-12.277,11.156-19.373,25.8-19.373A32.3,32.3,0,0,1,116.4,13.934Z"/><polygon class="cls-1" points="119.636 0.166 135.474 0.166 135.474 39.907 159.997 39.907 159.997 49.702 119.636 49.702 119.636 0.166"/><polygon class="cls-1" points="163.147 0.166 205.041 0.166 205.041 9.534 178.985 9.534 178.985 19.753 203.592 19.753 203.592 29.121 178.985 29.121 178.985 40.332 205.976 40.332 205.976 49.702 163.147 49.702 163.147 0.166"/><path class="cls-1" d="M209.64.166h21.625c20.692,0,35.168,5.394,35.168,24.555,0,18.521-14.9,24.977-35.168,24.977H209.64Zm15.836,39.741h6.132c11.835,0,18.477-5.11,18.477-14.973s-6.9-14.975-18.477-14.975h-6.132Z"/><path class="cls-1" d="M266.125,0a4.16,4.16,0,0,1,2,.525,3.718,3.718,0,0,1,1.516,1.5,4.076,4.076,0,0,1,.009,4.053,3.772,3.772,0,0,1-1.5,1.5,4.071,4.071,0,0,1-4.038,0,3.768,3.768,0,0,1-1.5-1.5,4.053,4.053,0,0,1,.008-4.053,3.731,3.731,0,0,1,1.519-1.5A4.156,4.156,0,0,1,266.125,0Zm0,.672a3.461,3.461,0,0,0-1.665.439,3.154,3.154,0,0,0-1.266,1.253,3.379,3.379,0,0,0-.009,3.378A3.2,3.2,0,0,0,264.442,7a3.381,3.381,0,0,0,3.367,0,3.166,3.166,0,0,0,1.253-1.253,3.395,3.395,0,0,0-.008-3.378,3.117,3.117,0,0,0-1.266-1.253A3.465,3.465,0,0,0,266.125.672ZM264.345,6.3V1.936h1.5a3.673,3.673,0,0,1,1.112.121,1.075,1.075,0,0,1,.549.423,1.116,1.116,0,0,1,.2.64,1.163,1.163,0,0,1-.341.834,1.358,1.358,0,0,1-.907.4,1.184,1.184,0,0,1,.371.231,5,5,0,0,1,.646.866l.532.855h-.861l-.387-.689a3.554,3.554,0,0,0-.736-1.016.912.912,0,0,0-.565-.151h-.414V6.3Zm.7-2.458h.856a1.379,1.379,0,0,0,.836-.183.6.6,0,0,0,.222-.484.589.589,0,0,0-.107-.347.648.648,0,0,0-.3-.229,2.221,2.221,0,0,0-.707-.075h-.8Z"/><path class="cls-2" d="M285.957,47.67h-.049a4.25,4.25,0,0,1-3.846,2.083c-2.75,0-4.989-2.377-4.989-5.98,0-4.459,2.847-6.4,5.33-6.4a3.9,3.9,0,0,1,3.627,2.033h.048l.073-1.788h2.02c-.048.98-.1,2.033-.1,3.259V54.336h-2.117Zm0-5.244a3.5,3.5,0,0,0-.1-.882,3.157,3.157,0,0,0-3.067-2.451c-2.214,0-3.553,1.887-3.553,4.534,0,2.377,1.12,4.41,3.48,4.41a3.2,3.2,0,0,0,3.067-2.327,3.987,3.987,0,0,0,.171-1.054Z"/><path class="cls-2" d="M301.483,46.225c0,1.249.024,2.327.1,3.258h-1.9l-.122-1.935h-.049a4.4,4.4,0,0,1-3.893,2.2c-1.85,0-4.065-1.054-4.065-5.195V37.623H293.7v6.543c0,2.254.706,3.8,2.628,3.8a3.082,3.082,0,0,0,2.823-1.984,2.977,2.977,0,0,0,.195-1.1V37.623h2.142Z"/><path class="cls-2" d="M313.31,46.641a20.128,20.128,0,0,0,.17,2.842h-1.922l-.171-1.495h-.073a4.375,4.375,0,0,1-3.6,1.765,3.366,3.366,0,0,1-3.6-3.406c0-2.867,2.53-4.436,7.082-4.411V41.69a2.422,2.422,0,0,0-2.678-2.719,5.647,5.647,0,0,0-3.091.882l-.486-1.446a7.584,7.584,0,0,1,3.894-1.029c3.6,0,4.478,2.475,4.478,4.827Zm-2.068-3.21c-2.337-.049-4.99.367-4.99,2.671a1.883,1.883,0,0,0,2,2.058,2.975,2.975,0,0,0,2.9-1.985,2.452,2.452,0,0,0,.1-.686Z"/><path class="cls-2" d="M316.765,32.084h2.142v17.4h-2.142Z"/><path class="cls-2" d="M324.893,34.29a1.282,1.282,0,0,1-1.362,1.323,1.263,1.263,0,0,1-1.29-1.323,1.309,1.309,0,0,1,1.339-1.348A1.289,1.289,0,0,1,324.893,34.29Zm-2.385,15.193V37.623h2.142v11.86Z"/><path class="cls-2" d="M330.783,34.78v2.843h3.066v1.642h-3.066V45.66c0,1.471.413,2.3,1.606,2.3a3.971,3.971,0,0,0,1.241-.147l.1,1.642a5.822,5.822,0,0,1-1.9.294,3.047,3.047,0,0,1-2.312-.906,4.659,4.659,0,0,1-.828-3.113V39.265h-1.825V37.623h1.825V35.417Z"/><path class="cls-2" d="M337.232,37.623l2.555,7.008c.292.784.584,1.716.779,2.427h.049c.218-.711.462-1.618.754-2.476l2.337-6.959h2.262l-3.212,8.454c-1.533,4.069-2.58,6.126-4.04,7.425a6.066,6.066,0,0,1-2.629,1.373l-.535-1.789a5.672,5.672,0,0,0,1.874-1.054,6.817,6.817,0,0,0,1.8-2.4,1.553,1.553,0,0,0,.171-.515,1.494,1.494,0,0,0-.171-.564L334.9,37.623Z"/><path class="cls-2" d="M353.074,32.084h2.141v17.4h-2.141Z"/><path class="cls-2" d="M361.2,34.29a1.282,1.282,0,0,1-1.363,1.323,1.264,1.264,0,0,1-1.29-1.323,1.309,1.309,0,0,1,1.339-1.348A1.29,1.29,0,0,1,361.2,34.29Zm-2.385,15.193V37.623h2.141v11.86Z"/><path class="cls-2" d="M374.587,47.743c0,2.745-.559,4.387-1.678,5.441a6.45,6.45,0,0,1-4.309,1.421,7.563,7.563,0,0,1-3.918-.98l.535-1.667a6.38,6.38,0,0,0,3.456.956c2.191,0,3.8-1.151,3.8-4.166v-1.3h-.049a4.167,4.167,0,0,1-3.748,1.986c-2.92,0-5.013-2.5-5.013-5.784,0-4.019,2.6-6.273,5.33-6.273a3.93,3.93,0,0,1,3.675,2.033h.048l.074-1.788h1.9c-.073.833-.1,1.814-.1,3.234ZM372.446,42.3a2.855,2.855,0,0,0-.122-.956,3.06,3.06,0,0,0-2.993-2.3c-2.044,0-3.5,1.74-3.5,4.484,0,2.328,1.192,4.265,3.48,4.265a3.092,3.092,0,0,0,2.97-2.206,3.792,3.792,0,0,0,.17-1.151Z"/><path class="cls-2" d="M378.116,32.084h2.141V39.51h.049a4.036,4.036,0,0,1,1.533-1.544,4.374,4.374,0,0,1,2.191-.588c1.581,0,4.112.979,4.112,5.048v7.057H386V42.671c0-1.911-.706-3.5-2.725-3.5A3.114,3.114,0,0,0,380.4,41.3a2.785,2.785,0,0,0-.146,1.029v7.155h-2.141Z"/><path class="cls-2" d="M394.2,34.78v2.843h3.066v1.642H394.2V45.66c0,1.471.414,2.3,1.606,2.3a3.971,3.971,0,0,0,1.241-.147l.1,1.642a5.832,5.832,0,0,1-1.9.294,3.047,3.047,0,0,1-2.313-.906,4.66,4.66,0,0,1-.827-3.113V39.265h-1.825V37.623h1.825V35.417Z"/><path class="cls-2" d="M402.062,34.29a1.282,1.282,0,0,1-1.362,1.323,1.263,1.263,0,0,1-1.29-1.323,1.309,1.309,0,0,1,1.339-1.348A1.289,1.289,0,0,1,402.062,34.29Zm-2.385,15.193V37.623h2.142v11.86Z"/><path class="cls-2" d="M405.372,40.833c0-1.25-.025-2.23-.1-3.21h1.9l.122,1.96h.049a4.357,4.357,0,0,1,3.894-2.2c1.631,0,4.162.979,4.162,5.048v7.057h-2.142V42.647c0-1.912-.706-3.5-2.726-3.5a3.164,3.164,0,0,0-3.018,3.211v7.13h-2.141Z"/><path class="cls-2" d="M428.954,47.743c0,2.745-.56,4.387-1.679,5.441a6.448,6.448,0,0,1-4.309,1.421,7.565,7.565,0,0,1-3.918-.98l.535-1.667a6.384,6.384,0,0,0,3.457.956c2.19,0,3.8-1.151,3.8-4.166v-1.3h-.048a4.17,4.17,0,0,1-3.748,1.986c-2.92,0-5.014-2.5-5.014-5.784,0-4.019,2.6-6.273,5.33-6.273a3.929,3.929,0,0,1,3.675,2.033h.049l.073-1.788h1.9c-.073.833-.1,1.814-.1,3.234ZM426.812,42.3a2.829,2.829,0,0,0-.122-.956,3.06,3.06,0,0,0-2.993-2.3c-2.044,0-3.5,1.74-3.5,4.484,0,2.328,1.192,4.265,3.48,4.265a3.091,3.091,0,0,0,2.97-2.206,3.792,3.792,0,0,0,.17-1.151Z"/></svg>