<svg width="294" height="35" viewBox="0 0 294 35" fill="none" xmlns="http://www.w3.org/2000/svg">
  <g clipPath="url(#clip0_78_58)">
    <path
      d="M63.1484 9.93245L63.2326 9.8408C62.1646 10.0651 61.1111 10.4776 60.173 11.0805C59.2927 11.6474 58.511 12.3806 57.9193 13.2851C57.8568 13.3791 57.7966 13.478 57.7365 13.5793C58.5399 13.261 59.3047 12.9281 60.0744 12.4771C61.0558 11.903 62.0492 11.1312 63.1484 9.93245ZM57.0125 15.2967C57.2915 15.1857 57.5657 15.0796 57.8327 14.9735C59.9542 14.1486 61.7389 13.4539 63.9469 11.0516C64.2861 10.6826 64.6156 10.3473 64.9403 10.041C65.087 9.90351 65.2313 9.77085 65.3757 9.64543C65.3011 9.64543 65.2217 9.64302 65.1424 9.64302C64.9547 9.64302 64.7743 9.64784 64.5964 9.6599C64.4496 9.66955 64.2981 9.68161 64.1442 9.69849C64.06 9.78291 63.9758 9.86974 63.8892 9.95899C63.7834 10.0675 63.6751 10.1857 63.5597 10.3111C62.4148 11.5581 61.3805 12.3613 60.3558 12.9619C59.3721 13.5383 58.4028 13.9218 57.3565 14.3295C57.2843 14.4935 57.217 14.6623 57.1568 14.836C57.1039 14.9855 57.0558 15.1399 57.0125 15.2967ZM66.2368 10.7067C66.5735 10.4148 66.9126 10.1471 67.2614 9.89145C67.158 9.86733 67.0546 9.84562 66.9487 9.82392C66.6865 9.77085 66.4244 9.72985 66.1694 9.70091C65.8832 9.93245 65.6018 10.1785 65.3179 10.4462C65.0053 10.7429 64.6853 11.0661 64.3534 11.4279C62.0588 13.9243 60.2187 14.6406 58.0323 15.492C57.6523 15.6392 57.2627 15.7911 56.8586 15.9575C56.8273 16.1312 56.8008 16.3097 56.7792 16.493C56.7648 16.6136 56.7527 16.7366 56.7455 16.8572C57.4118 16.5654 58.0323 16.3242 58.6289 16.0926C60.7503 15.2677 62.535 14.5731 64.7431 12.1708C65.2602 11.6088 65.7461 11.1336 66.2392 10.7067H66.2368ZM67.3817 11.5316C67.8651 11.136 68.3606 10.7815 68.8994 10.4366C68.8104 10.398 68.7214 10.3594 68.6324 10.3232C68.4087 10.2339 68.1826 10.1519 67.9589 10.082C67.4827 10.4076 67.0401 10.7477 66.6 11.1264C66.1261 11.5364 65.6547 11.9971 65.1496 12.547C62.8549 15.0458 61.0149 15.7598 58.8261 16.6112C58.1622 16.8693 57.4671 17.1394 56.7215 17.4747V17.4988C56.7215 17.7134 56.7287 17.9185 56.7431 18.1162C56.7479 18.1886 56.7551 18.261 56.7599 18.3333C57.7221 17.8726 58.5976 17.5326 59.4226 17.2118C61.5441 16.3869 63.3288 15.6922 65.5368 13.2899C66.1742 12.5953 66.7683 12.0333 67.3793 11.534L67.3817 11.5316ZM68.3967 12.4771C68.9812 12.0164 69.5897 11.6088 70.2752 11.1939C70.1935 11.1384 70.1093 11.083 70.0251 11.0299C69.8471 10.9189 69.6691 10.8152 69.4887 10.7212C68.8513 11.1191 68.2837 11.5147 67.7328 11.9633C67.1436 12.4433 66.5687 12.9884 65.9481 13.6662C63.6535 16.165 61.8134 16.8789 59.6246 17.7303C58.7684 18.0632 57.8592 18.4177 56.8369 18.9146C56.8634 19.0762 56.897 19.2354 56.9331 19.3922C56.9596 19.5031 56.986 19.6117 57.0173 19.7202C58.2031 19.1148 59.247 18.7096 60.2211 18.3309C62.3426 17.506 64.1273 16.8114 66.3354 14.4091C67.0497 13.6324 67.7064 13.0222 68.3967 12.4795V12.4771ZM69.3011 13.5094C69.9457 13.0125 70.6192 12.5736 71.3985 12.1153C71.3191 12.0381 71.2397 11.9609 71.1604 11.8886C71.0329 11.7728 70.8982 11.6594 70.7587 11.5485C70.0082 11.9947 69.3588 12.424 68.7358 12.9136C68.072 13.4346 67.437 14.0256 66.7419 14.7829C64.4472 17.2817 62.6072 17.9956 60.4184 18.8471C59.437 19.2282 58.3835 19.6382 57.1857 20.2557C57.2386 20.398 57.2939 20.5403 57.3565 20.6778C57.4046 20.7863 57.4527 20.8924 57.5056 20.9961C58.8141 20.3039 59.9566 19.8601 61.0149 19.4501C63.1364 18.6252 64.9211 17.9305 67.1291 15.5282C67.882 14.7106 68.5699 14.0762 69.2987 13.5142L69.3011 13.5094ZM70.1165 14.6165C70.7779 14.1076 71.4779 13.6565 72.2908 13.1814C72.2211 13.0801 72.1489 12.9812 72.0744 12.8823C71.983 12.7617 71.8892 12.6459 71.7906 12.5326C70.9872 13.0029 70.2969 13.4467 69.6426 13.9532C68.9403 14.4959 68.274 15.1085 67.5428 15.9045C65.2482 18.4033 63.4081 19.1172 61.2193 19.9686C60.1827 20.3714 59.0666 20.8056 57.7774 21.4858C57.8495 21.6064 57.9241 21.7221 58.0035 21.8355C58.078 21.944 58.155 22.0502 58.2344 22.1539C59.5789 21.4375 60.7407 20.9865 61.8159 20.5668C63.9373 19.7419 65.722 19.0473 67.9301 16.6449C68.6877 15.8201 69.3805 15.1833 70.1165 14.6165ZM70.8381 15.7911C71.4875 15.2846 72.1658 14.8408 72.9475 14.3777C72.8922 14.245 72.832 14.1196 72.7695 13.9966C72.7118 13.8808 72.6492 13.7651 72.5819 13.6493C71.7857 14.1148 71.1002 14.5562 70.4508 15.0579C69.7413 15.603 69.0726 16.2204 68.3366 17.0212C66.0419 19.52 64.2019 20.2339 62.0131 21.0854C60.9812 21.4858 59.87 21.9199 58.5976 22.588C58.6842 22.6845 58.7732 22.7762 58.8622 22.8654C58.9704 22.9739 59.0834 23.0777 59.1989 23.1814C60.4665 22.5181 61.5777 22.0863 62.612 21.686C64.7335 20.8611 66.5182 20.1664 68.7262 17.7641C69.4574 16.9682 70.1285 16.3459 70.8381 15.7935V15.7911ZM60.4352 24.0762C61.5272 23.5335 62.499 23.1572 63.4106 22.8027C65.532 21.9778 67.3167 21.2832 69.5248 18.8808C70.1958 18.15 70.8164 17.5663 71.4658 17.0453C72.0648 16.5654 72.6805 16.1457 73.3756 15.7212C73.342 15.562 73.3011 15.4028 73.2578 15.2484C73.2241 15.1326 73.188 15.0169 73.1519 14.9059C72.4207 15.3401 71.7857 15.7598 71.1796 16.2325C70.4989 16.7631 69.8495 17.3661 69.1375 18.1404C66.8429 20.6392 65.0028 21.3531 62.814 22.2045C61.8591 22.576 60.8345 22.9739 59.6727 23.5673C59.7666 23.6372 59.8604 23.7072 59.959 23.7723C60.1153 23.8808 60.2765 23.9821 60.4376 24.0786L60.4352 24.0762ZM71.5236 21.493C69.431 23.7699 67.7184 24.5658 65.7749 25.3328C67.461 25.2147 69.2145 24.6237 70.6288 23.5504C71.805 22.658 72.7479 21.4303 73.2217 19.8625C73.0461 20.0096 72.8705 20.1616 72.6949 20.3208C72.3125 20.6681 71.9277 21.054 71.5236 21.493ZM71.9758 18.3984C72.4809 17.9715 72.9956 17.5953 73.556 17.2286C73.5512 17.0333 73.5368 16.8403 73.52 16.6498C73.5079 16.534 73.4959 16.4206 73.4791 16.3097C72.8753 16.686 72.3341 17.0598 71.8098 17.4795C71.1892 17.9764 70.5879 18.5432 69.9313 19.2571C67.6366 21.7535 65.7966 22.4698 63.6078 23.3213C62.8116 23.63 61.965 23.9604 61.0365 24.4018C61.1183 24.4428 61.2001 24.4814 61.2843 24.52C61.5272 24.631 61.775 24.7298 62.0227 24.8167H62.0251C62.8044 24.4645 63.5212 24.1872 64.2019 23.9218C66.3234 23.0969 68.1081 22.4023 70.3161 20C70.891 19.3753 71.4274 18.8591 71.971 18.3984H71.9758ZM73.5488 17.8992C73.1255 18.1886 72.7262 18.4901 72.3293 18.823C71.8026 19.2668 71.283 19.7684 70.725 20.3738C68.4304 22.8726 66.5903 23.5866 64.4015 24.438C63.9012 24.631 63.3841 24.8336 62.8405 25.0651L62.9536 25.0941C63.2302 25.1616 63.514 25.2147 63.8026 25.2581C63.894 25.2725 63.9854 25.2846 64.0768 25.2942C64.1442 25.3015 64.2163 25.3087 64.2933 25.316C64.5507 25.2147 64.7768 25.1254 65.0004 25.0386C67.1219 24.2137 68.9066 23.519 71.1147 21.1167C71.5308 20.6633 71.9253 20.2677 72.3197 19.9107C72.6853 19.5779 73.0485 19.2764 73.4286 18.9918C73.4694 18.7675 73.4983 18.5408 73.52 18.3116C73.532 18.179 73.5416 18.0391 73.5464 17.8992H73.5488ZM74.0924 16.8813L74.1068 16.8717C74.1068 17.0912 74.1092 17.3106 74.1141 17.5277C74.1141 17.8075 74.0996 18.0849 74.0732 18.3623L74.0563 18.5263L74.0948 18.4973C74.0419 18.7675 73.9866 19.0376 73.9361 19.3053C73.5176 21.3435 72.4039 22.9016 70.9655 23.9942C69.2722 25.2774 67.1267 25.9117 65.1424 25.9117C65.0173 25.9117 64.8802 25.9093 64.7286 25.9021C64.6036 25.8972 64.4833 25.89 64.3751 25.8804C63.9638 25.8466 63.5549 25.808 63.1436 25.7742L63.2614 25.726C63.1195 25.697 62.9752 25.6657 62.8309 25.6319C62.5687 25.5692 62.3089 25.4944 62.0564 25.4124C61.8014 25.3256 61.5465 25.2388 61.2915 25.1519L61.3228 25.1375C61.2338 25.1013 61.1472 25.0627 61.0606 25.0217C60.8489 24.9252 60.6349 24.8191 60.4232 24.7009L59.8435 24.3729L59.8604 24.3656C59.7906 24.3198 59.7209 24.274 59.6511 24.2257C59.4779 24.1052 59.3071 23.9797 59.1388 23.8447H59.1364L58.9343 23.6758L58.677 23.4612L58.6866 23.4563C58.6168 23.3912 58.5495 23.3261 58.4797 23.2586C58.3498 23.1283 58.2248 22.9956 58.1045 22.8582H58.1021C57.9818 22.7134 57.8616 22.5687 57.7413 22.424L57.7509 22.4192C57.6836 22.3299 57.6186 22.2407 57.5561 22.149C57.4671 22.0188 57.3805 21.8837 57.2987 21.7463H57.2939C57.2049 21.5871 57.1159 21.423 57.0245 21.2614H57.0293C56.9692 21.1408 56.9139 21.0227 56.861 20.9021C56.8056 20.7766 56.7527 20.6464 56.7046 20.5161H56.6998L56.5964 20.2074L56.5242 19.9831C56.4785 19.8312 56.4376 19.6768 56.4016 19.5176C56.3751 19.4042 56.3511 19.2885 56.3294 19.1727L56.3222 19.1775C56.2957 18.9846 56.2669 18.7916 56.238 18.5986H56.2428C56.226 18.4515 56.2115 18.3044 56.2019 18.1572C56.1923 18.0149 56.1851 17.8726 56.1827 17.7327L56.1707 17.7376C56.1755 17.5326 56.1827 17.3251 56.1875 17.1201C56.1971 16.8813 56.214 16.6546 56.2404 16.4351C56.25 16.3603 56.2597 16.2856 56.2693 16.2108L56.2524 16.218L56.3847 15.562L56.3943 15.521C56.4136 15.4414 56.428 15.3811 56.4376 15.3401C56.4954 15.1085 56.5651 14.8818 56.6421 14.6575L56.6589 14.6068L56.6228 14.6213L56.9548 13.8977C57.0221 13.7554 57.0919 13.6203 57.1664 13.4853C57.2602 13.3164 57.3589 13.1524 57.4671 12.9884C58.1069 12.014 58.9415 11.2277 59.8844 10.6199C60.9067 9.96381 62.054 9.52001 63.2157 9.28605C63.3312 9.26193 63.4611 9.23781 63.6054 9.2161C63.7088 9.19922 63.8074 9.18475 63.8988 9.17269L64.796 9.06415L64.7599 9.09792C64.8946 9.09309 65.0245 9.08827 65.1496 9.08827C65.2891 9.08827 65.4406 9.09309 65.6018 9.10033C65.7341 9.10756 65.8712 9.11721 66.0083 9.12927C66.2728 9.1558 66.5398 9.17992 66.8044 9.20404L66.7731 9.22816C66.8693 9.24504 66.968 9.26193 67.0642 9.28122C67.3312 9.33429 67.6006 9.39941 67.8699 9.47659L68.5579 9.68161L68.5386 9.69367C68.6396 9.72985 68.7407 9.76844 68.8417 9.80944C69.0533 9.89386 69.2602 9.98552 69.4646 10.0868L69.6426 10.1761L70.0443 10.3811L70.0323 10.3883C70.1285 10.4438 70.2247 10.5017 70.3185 10.5596C70.4797 10.6609 70.6408 10.7694 70.7996 10.8852C70.879 10.9431 70.9559 11.001 71.0353 11.0613L71.2782 11.2446L71.2686 11.2494C71.3576 11.3242 71.4442 11.3989 71.5308 11.4785C71.6559 11.5919 71.7785 11.7101 71.894 11.8283L71.9228 11.8596C71.9637 11.903 72.0046 11.9464 72.0455 11.9899L72.2812 12.2455L72.274 12.2504C72.3558 12.3468 72.4328 12.4457 72.5097 12.5446C72.5963 12.6604 72.6829 12.7786 72.7671 12.904H72.7719L72.9162 13.1355L73.063 13.3743H73.0581C73.1279 13.4973 73.1952 13.6228 73.2602 13.753C73.3179 13.8688 73.3732 13.9846 73.4237 14.1003L73.431 14.0955C73.4983 14.2716 73.5657 14.4452 73.6354 14.6213H73.633C73.6883 14.7805 73.7388 14.9397 73.7845 15.0989C73.8158 15.205 73.8423 15.3135 73.8687 15.4221L73.8783 15.4173L73.989 15.9985H73.9866C74.0203 16.1963 74.0467 16.3965 74.066 16.6015C74.0756 16.6956 74.0828 16.7897 74.0876 16.8837L74.0924 16.8813Z"
      fill="#007272" />
    <path
      d="M10.2104 25.6898V20.8973H19.3529C21.0246 20.8973 21.9049 22.1081 21.9049 23.3165C21.9049 24.5249 21.0703 25.6898 19.3529 25.6898H10.2104ZM10.2104 13.6831V8.65655H16.4305C18.1479 8.65655 18.9825 9.91318 18.9825 11.1698C18.9825 12.4264 18.1479 13.6831 16.4305 13.6831H10.2104ZM21.7678 33.7892C28.2645 33.7892 31.6535 29.1824 31.6535 24.3415C31.6535 21.3628 30.3547 18.2923 27.6631 16.2446C28.5459 14.6623 29.0101 12.8461 29.0101 11.0782C29.0101 6.14569 25.6211 1.21082 18.8454 1.21082H0V33.7892H21.7678Z"
      fill="#007272" />
    <path d="M43.9829 1.21082H33.7725V33.7892H43.9829V1.21082Z" fill="#007272" />
    <path
      d="M86.3279 17.4988C86.3279 28.9484 96.1198 34.9976 104.521 34.9976C111.576 34.9976 116.82 31.973 120.442 27.5519L113.156 20.849C111.579 22.8509 109.582 25.2243 105.034 25.2243C99.5569 25.2243 96.8197 21.3603 96.8197 17.4988C96.8197 13.6372 99.5569 9.72745 105.034 9.72745C108.235 9.72745 111.485 11.8693 113.111 14.0087L120.399 7.21418C116.913 2.69899 111.528 0 104.567 0C96.2136 0 86.3279 6.0492 86.3279 17.4988Z"
      fill="#007272" />
    <path
      d="M223.039 19.4067C223.039 29.4139 231.532 34.3922 239.98 34.3922C248.427 34.3922 256.92 29.4115 256.92 19.4067V0.605408H246.71V19.4091C246.71 23.0849 243.321 24.9011 239.98 24.9011C236.639 24.9011 233.25 23.0849 233.25 19.4091V0.605408H223.039V19.4091V19.4067Z"
      fill="#007272" />
    <path d="M161.291 33.7892H190.253V25.4125H171.504V1.21082H161.291V33.7892Z" fill="#007272" />
    <path d="M182.828 1.21082V9.58756H195.869V33.7892H206.08V9.58756H219.075V1.21082H182.828Z"
      fill="#007272" />
    <path
      d="M123.009 19.4067C123.009 29.4139 131.502 34.3922 139.949 34.3922C148.396 34.3922 156.889 29.4115 156.889 19.4067V0.605408H146.679V19.4091C146.679 23.0849 143.29 24.9011 139.949 24.9011C136.608 24.9011 133.219 23.0849 133.219 19.4091V0.605408H123.009V19.4091V19.4067Z"
      fill="#007272" />
    <path
      d="M294 5.14233C289.221 2.16355 281.839 0.161621 275.248 0.161621C267.59 0.161621 261.045 2.90644 261.045 10.1689C261.045 23.1066 282.488 20.9672 282.488 25.0145C282.488 25.8997 281.281 26.317 279.424 26.317C275.2 26.317 267.681 24.2234 263.643 21.1505L259.049 29.9928C263.782 32.9257 271.347 34.8336 278.217 34.8336C286.524 34.8336 293.858 31.9947 293.858 24.6406C293.858 11.7029 272.275 14.356 272.275 10.3063C272.275 9.28126 273.622 8.81816 275.665 8.81816C279.47 8.81816 285.69 10.5403 289.355 13.5191L293.998 5.14233H294Z"
      fill="#007272" />
    <path
      d="M73.4019 17.4988C73.4019 22.711 68.9473 25.2701 65.1398 25.2701C61.3322 25.2701 56.8776 22.711 56.8776 17.4988C56.8776 12.2865 61.3322 9.72745 65.1398 9.72745C68.9473 9.72745 73.4019 12.2865 73.4019 17.4988ZM83.8456 17.4988C83.8456 5.72359 73.7723 0 65.1398 0C56.5072 0 46.4363 5.72359 46.4363 17.4988C46.4363 29.274 56.5072 34.9976 65.1398 34.9976C73.7723 34.9976 83.8432 29.274 83.8432 17.4988H83.8456Z"
      fill="#007272" />
  </g>
  <defs>
    <clipPath id="clip0_78_58">
      <rect width="294" height="35" fill="white" />
    </clipPath>
  </defs>
</svg>