<svg width="149" height="93" viewBox="0 0 149 93" fill="none" xmlns="http://www.w3.org/2000/svg">
<path fill-rule="evenodd" clip-rule="evenodd" d="M56.5742 8.19071C56.1004 7.61977 55.8391 6.90232 55.8346 6.16041C55.8247 5.41349 56.0745 4.68633 56.5414 4.10326C57.0084 3.52019 57.6634 3.11745 58.3944 2.9639C58.0593 2.19943 57.8404 1.38919 57.7447 0.560015C57.7427 0.485884 57.7554 0.412089 57.7821 0.342932C57.8089 0.273774 57.8492 0.21064 57.9006 0.157205C57.9521 0.103143 58.0149 0.0611282 58.0846 0.0341724C58.1542 0.00721664 58.229 -0.00401749 58.3034 0.00127411C59.8807 0.136181 61.3716 0.779067 62.5524 1.83342C63.533 2.86146 64.1689 4.16952 64.3716 5.57569L75.6504 5.73161V11.1631H74.6108V6.71915H71.5833V9.69477H70.5308V6.73215L64.3716 6.65418C64.1751 8.04551 63.5481 9.34047 62.5785 10.3575C61.4095 11.4283 59.9212 12.0856 58.3424 12.2286C58.2713 12.2269 58.2012 12.2111 58.1364 12.1819C58.0715 12.1528 58.0131 12.1109 57.9647 12.0588C57.9163 12.0068 57.8787 11.9455 57.8544 11.8787C57.83 11.8119 57.8192 11.7409 57.8227 11.6698C57.8954 10.8492 58.1017 10.046 58.4334 9.29196C57.705 9.15079 57.048 8.76164 56.5742 8.19071ZM58.9531 11.0851C60.0455 10.8892 61.057 10.379 61.8638 9.61681V9.57782C62.6282 8.77096 63.1427 7.76005 63.3451 6.66717C62.234 6.83027 61.2056 7.34885 60.4139 8.14526C59.6222 8.94168 59.1097 9.97309 58.9531 11.0851ZM63.3581 5.56269C63.157 4.45523 62.6377 3.43029 61.8638 2.61306L61.8378 2.57408C61.0196 1.84838 60.0168 1.36276 58.9401 1.17074C59.1032 2.28182 59.6218 3.31019 60.4182 4.10192C61.2146 4.89365 62.246 5.40615 63.3581 5.56269ZM59.001 4.00362C59.2007 4.29817 59.4236 4.5762 59.6678 4.83503C60.2332 5.38899 60.8992 5.83001 61.6299 6.13443C60.5527 6.56581 59.6419 7.33083 59.0311 8.31741C58.459 8.31741 57.9104 8.09015 57.5059 7.68564C57.1014 7.28112 56.8741 6.73248 56.8741 6.16041C56.8741 5.58834 57.1014 5.0397 57.5059 4.63518C57.9033 4.23776 58.4398 4.01143 59.001 4.00362ZM15.4498 64.0485V46.8445H19.1921V64.5553C19.1921 67.271 20.4135 68.7653 22.7134 68.7653C25.0134 68.7653 26.2218 67.271 26.2218 64.5553V46.8445H29.9641V64.0485C29.9641 69.376 27.4692 72.2607 22.7134 72.2607C17.9576 72.2607 15.4498 69.376 15.4498 64.0485ZM3.74226 58.1362H11.3827V61.6316H3.74226V71.8449H0V46.8575H12.825V50.3529H3.74226V58.1362ZM47.233 54.342V53.8092C47.233 49.3783 44.985 46.8445 40.0084 46.8445H33.7713V71.8319H37.5266V61.2288H40.1253L43.8806 71.8319H47.7788L43.7116 60.6311C46.0765 59.6305 47.233 57.5255 47.233 54.342ZM43.4778 54.342C43.4778 56.9408 42.1784 57.7724 39.8005 57.7724H37.5266V50.3399H39.8005C42.2044 50.3399 43.4778 51.3014 43.4778 53.7703V54.342ZM66.8667 71.8319L73.3637 46.8445L77.8466 46.8965L84.3436 71.8838H80.6663L79.224 65.9326H72.0643L70.518 71.8319H66.8667ZM75.5597 50.6517L72.805 62.4372H78.3144L75.5597 50.6517ZM91.0876 71.8449V50.3529H96.2072V46.8575H82.1997V50.3529H87.3323V71.8449H91.0876ZM98.2471 64.0485V46.8445H101.95V64.5553C101.95 67.232 103.211 68.7653 105.511 68.7653C107.811 68.7653 109.019 67.271 109.019 64.5553V46.8445H112.761V64.0485C112.761 69.376 110.267 72.2607 105.511 72.2607C100.755 72.2607 98.2471 69.376 98.2471 64.0485ZM126.262 60.6311C128.666 59.6305 129.77 57.5255 129.77 54.342V53.8092C129.77 49.3783 127.535 46.8445 122.546 46.8445H116.321V71.8319H120.064V61.2288H122.662L126.418 71.8319H130.316L126.262 60.6311ZM126.015 54.342C126.015 56.9408 124.715 57.7724 122.338 57.7724H120.064V50.3399H122.338C124.741 50.3399 126.015 51.3014 126.015 53.7703V54.342ZM65.3209 50.3529V71.8449H61.5656V60.683L54.6139 52.3019V71.8449H50.8586V50.3529V46.8575H54.6139L61.5656 55.2516V50.3529V46.8575H65.3209V50.3529ZM142.102 46.8445H137.671L131.174 71.8319H134.826L136.268 65.8806H143.428L144.87 71.8319H148.547L142.102 46.8445ZM137.126 62.4372L139.867 50.6517L142.622 62.4372H137.126ZM54.7305 23.3515L54.0158 23.8712C50.9184 25.2378 47.5887 26.0007 44.2054 26.1192C42.6163 25.9786 41.037 25.7443 39.4756 25.4175C39.3244 25.4175 39.0942 25.6661 38.7149 26.0757C38.018 26.8282 36.818 28.1239 34.6808 29.4197C34.2777 29.6653 33.9386 29.6972 33.5586 29.733C33.1548 29.771 32.7046 29.8134 32.082 30.1213C31.4713 30.4202 30.7826 31.2388 30.8996 31.6676C30.9775 31.8755 31.5623 32.0055 32.199 32.0185C33.4204 32.0185 36.2141 31.3947 41.0998 27.0158C41.1908 26.9248 41.4246 26.9378 41.3987 27.0937C41.3179 27.4262 41.1574 27.7339 40.9309 27.9903C41.2645 28.0401 41.8958 28.1109 42.7078 28.2019C44.0147 28.3485 45.7896 28.5475 47.5448 28.7959C49.2522 28.3902 50.884 27.7147 52.3786 26.7949C52.5735 26.6779 52.7554 26.8988 52.5994 27.0418C49.4419 30.1993 44.2053 30.836 39.9303 30.5501C39.7823 30.5835 39.5168 30.9993 39.1261 31.6112L39.1261 31.6112C38.4533 32.6648 37.4091 34.2999 35.9542 35.5658C35.462 35.9931 35.0486 36.0872 34.6334 36.1817C34.0512 36.3142 33.4654 36.4475 32.6538 37.5019C32.225 38.0606 32.2249 38.6194 32.4458 38.7233C34.7848 39.8668 40.0213 34.8251 42.2563 31.8105C42.4512 31.5507 42.867 31.5897 42.841 31.8105C42.7008 32.2309 42.5179 32.6358 42.2952 33.019C44.894 32.954 55.848 32.6162 57.6671 31.9925C59.4863 31.3688 65.8013 25.3136 67.2176 22.1171C67.2176 22.0391 67.6335 21.9611 67.5945 22.221C67.3919 23.3254 66.9866 24.3827 66.3991 25.3396L66.464 25.4695C68.1407 25.5375 69.7876 25.9349 71.3108 26.639C71.5943 26.8331 72.0482 27.155 72.6196 27.5604C75.4522 29.5697 81.1742 33.6286 83.3692 34.3314C85.3952 34.932 87.5461 34.9724 89.5932 34.4483V34.2794C87.5662 33.3568 86.9945 30.914 88.6317 27.4186C88.8136 27.0288 89.2424 26.9768 89.1255 27.4186C88.1769 30.7061 87.5402 33.7986 92.6208 33.6947C92.6208 33.6947 106.394 32.954 108.525 33.2399C108.464 33.1566 108.318 33.0353 108.155 32.9004C107.936 32.7197 107.688 32.5144 107.577 32.3433C107.382 32.0444 107.915 32.0574 108.149 32.1874C108.798 32.5772 112.047 35.189 113.151 36.0856C113.43 36.3093 113.747 36.481 114.087 36.5923C114.499 36.7632 114.94 36.8511 115.386 36.8511C115.832 36.8511 116.274 36.7632 116.686 36.5923C117.868 35.9036 116.907 35.4489 116.907 35.4489C116.907 35.4489 111.449 31.8235 109.526 31.2908C107.335 30.6891 101.642 30.2779 97.972 30.0128C96.5696 29.9115 95.4627 29.8316 94.9597 29.7705C94.874 29.763 94.7916 29.7338 94.7203 29.6857C94.649 29.6375 94.5911 29.572 94.5521 29.4953C94.5131 29.4186 94.4943 29.3333 94.4974 29.2473C94.5005 29.1613 94.5255 29.0775 94.5699 29.0039C95.1507 28.11 95.5073 27.0893 95.6094 26.0282C95.6094 25.7164 95.8563 25.6904 95.9083 26.0282C96.0542 26.9963 95.9468 27.9857 95.5964 28.8999C95.5905 28.9161 95.5881 28.9334 95.5896 28.9506C95.5911 28.9678 95.5965 28.9844 95.6052 28.9993C95.6138 29.0142 95.6257 29.027 95.6399 29.0368C95.6542 29.0466 95.6704 29.0531 95.6874 29.0558C97.6906 29.2645 101.554 28.5027 104.523 27.9174C106.176 27.5915 107.552 27.3202 108.175 27.3016C108.109 27.2061 107.999 27.1407 107.881 27.0703C107.742 26.9874 107.591 26.8974 107.486 26.7429C107.291 26.457 107.772 26.548 107.915 26.613C108.388 26.86 110.485 28.1917 111.878 29.0769C112.244 29.309 112.561 29.5105 112.787 29.6536C113.051 29.8303 113.347 29.9538 113.658 30.0174C114.04 30.1208 114.439 30.1477 114.831 30.0964C115.224 30.0451 115.602 29.9167 115.945 29.7185C116.907 28.9779 115.802 28.5751 115.802 28.5751C115.802 28.5751 110.501 26.1322 108.525 25.4955C107.746 25.2455 105.843 25.37 103.471 25.5252C101.651 25.6443 99.5561 25.7814 97.4806 25.7814C97.8381 23.1482 97.2881 20.4718 95.9213 18.1929C95.5574 17.5952 94.2581 14.5806 93.8552 13.4891C92.257 13.632 92.387 12.9563 92.9067 12.9823C93.2949 12.9775 93.6819 12.9384 94.0631 12.8654C95.7264 12.4496 97.6365 11.475 96.8568 11.2411C96.6024 11.1669 95.9502 11.0668 95.3587 10.9759C95.2252 10.9554 95.0948 10.9354 94.9727 10.9163C94.8047 10.9163 94.5693 10.8874 94.2935 10.8535C94.0147 10.8192 93.6947 10.7799 93.3615 10.7603C93.0237 10.7603 92.9457 10.5265 93.2055 10.4745C93.9731 10.3856 94.7467 10.3595 95.5185 10.3965C95.9473 10.0717 96.2072 9.81178 96.1942 9.66885C96.1942 9.25304 92.0101 9.21406 92.0101 9.21406L90.2559 8.03161L88.3718 6.83616C87.995 6.5373 86.6826 6.83616 86.6826 6.83616C86.9165 7.08305 87.5922 7.78472 87.982 8.13556C88.3718 8.4864 87.7741 8.53838 87.5532 8.40844C87.2311 8.21864 86.9218 7.96519 86.6172 7.71571C86.2338 7.40156 85.858 7.0937 85.4742 6.92712L80.7574 5.41983C80.2636 5.27689 80.0167 5.79665 80.0947 6.31641C80.0947 6.35806 80.1391 6.46643 80.1826 6.57222L80.1826 6.5723C80.2205 6.66454 80.2575 6.75482 80.2636 6.79718C80.2684 6.83999 80.273 6.88312 80.2776 6.92657C80.3597 7.70091 80.4526 8.57578 82.1997 9.47394C83.5823 10.1889 84.915 10.9963 86.1888 11.8908C86.5811 12.4397 87.0542 12.926 87.5922 13.3331C88.4498 13.9511 89.4214 14.3927 90.4508 14.6325C90.7367 14.7235 90.8277 15.2952 90.4508 15.2303C90.2836 15.2014 89.9601 15.1572 89.6157 15.1102L89.6155 15.1101C89.1841 15.0512 88.72 14.9877 88.4888 14.9444C88.4888 14.9444 88.3978 14.9444 88.3978 15.0354C88.5211 16.2915 88.653 17.4059 88.7657 18.3583L88.766 18.3605L88.7663 18.3635L88.7666 18.3655L88.7667 18.3663L88.7667 18.3665C88.9626 20.0204 89.1004 21.1847 89.0345 21.7532C89.0345 22.169 88.6317 22.169 88.5797 21.8702C88.5277 21.5713 88.2679 20.2589 88.1379 19.8691H88.034C86.0313 21.271 83.5584 21.8309 81.1472 21.4284C80.045 21.1632 77.8884 20.1889 75.4936 19.1069C71.9027 17.4845 67.7761 15.6201 65.8663 15.5421C64.1575 15.5777 62.4561 15.7778 60.7857 16.1398C60.4459 16.1946 60.0477 16.2669 59.6232 16.3439L59.6231 16.3439L59.623 16.3439L59.6229 16.3439C58.5376 16.5408 57.281 16.7688 56.3937 16.8155C48.5973 17.5042 43.6466 16.2828 39.8784 13.4111C39.1117 12.8264 38.7609 12.9953 38.579 13.1772L38.5708 13.1854C38.3938 13.3621 38.2931 13.4625 39.1377 14.2687C40.5159 15.5006 42.1169 16.4577 43.8545 17.0884C46.3032 18.0387 48.8956 18.566 51.521 18.6477C53.5757 18.7214 55.6329 18.6083 57.6671 18.3098C58.995 18.0003 58.8653 18.1664 58.286 18.9084L58.2859 18.9085C58.1113 19.1322 57.8958 19.4081 57.6671 19.7392C57.3296 20.0536 56.6616 20.9115 55.9972 21.7647L55.9971 21.7647L55.9971 21.7648L55.997 21.7649L55.9969 21.7651C55.5358 22.3571 55.0764 22.947 54.7305 23.3515ZM55.2369 85.8134C55.7283 85.8048 56.2159 85.9023 56.6662 86.0993C57.043 86.2634 57.3668 86.5288 57.6018 86.8659C57.8161 87.2134 57.9286 87.6141 57.9266 88.0224C57.9322 88.4311 57.8194 88.8328 57.6018 89.1788C57.3694 89.5246 57.0455 89.799 56.6662 89.9715C56.2149 90.164 55.7274 90.257 55.2369 90.2443H52.6381V92.8431H51.3387V85.8134H55.2369ZM55.1979 89.1918C55.5704 89.2145 55.9389 89.104 56.2374 88.88C56.3612 88.7778 56.4596 88.6484 56.5249 88.5019C56.5903 88.3553 56.6209 88.1957 56.6142 88.0353C56.6199 87.8752 56.5889 87.7158 56.5236 87.5694C56.4583 87.4231 56.3604 87.2935 56.2374 87.1908C55.9344 86.9772 55.5681 86.8719 55.1979 86.8919H52.5991V89.1918H55.1979ZM69.0236 85.8134L65.5672 92.8301L62.9684 90.0104C63.3447 89.9992 63.7154 89.9154 64.0599 89.7635C64.4287 89.6104 64.7448 89.353 64.9695 89.0229C65.191 88.7028 65.3047 88.3205 65.2943 87.9314C65.3048 87.5382 65.1912 87.1518 64.9695 86.8269C64.7372 86.5039 64.4233 86.2483 64.0599 86.0863C63.6307 85.8962 63.1648 85.8031 62.6955 85.8134H58.6934V92.8431H59.9928V90.0364H61.4611L63.9299 92.8431H66.8666L67.6592 91.2319H72.0642L72.8438 92.8431H74.2212L70.6998 85.8134H69.0236ZM60.0318 86.8919H62.6306C62.993 86.8719 63.3524 86.9675 63.6571 87.1647C63.7779 87.2519 63.8754 87.3674 63.9411 87.5011C64.0068 87.6348 64.0387 87.7825 64.0339 87.9314C64.0375 88.0819 64.0052 88.2312 63.9397 88.3667C63.8741 88.5023 63.7773 88.6203 63.6571 88.711C63.3524 88.9083 62.993 89.0039 62.6306 88.9839H60.0318V86.8919ZM68.166 90.2183L69.8292 86.8009L71.4924 90.2183H68.166ZM81.16 90.3223H78.5612V89.4257H82.3295V92.8821H81.3809L81.3029 91.5827C81.1823 91.7576 81.0429 91.9188 80.8871 92.0634C80.558 92.37 80.1686 92.6045 79.7437 92.7521C79.2517 92.9265 78.7322 93.0101 78.2104 92.999C77.6634 93.0056 77.119 92.9222 76.5991 92.7521C76.1251 92.5911 75.6847 92.3444 75.2997 92.0245C74.9359 91.7086 74.6435 91.3187 74.4421 90.881C74.2397 90.4 74.138 89.8826 74.1433 89.3607C74.1359 88.8373 74.2423 88.3186 74.4551 87.8404C74.6486 87.398 74.9422 87.0066 75.3127 86.6969C75.6951 86.3731 76.1363 86.1261 76.6121 85.9693C77.1487 85.7928 77.7105 85.7051 78.2754 85.7094C78.9461 85.6956 79.613 85.8149 80.2374 86.0602C80.7642 86.264 81.2328 86.5942 81.6018 87.0218C81.9445 87.4187 82.1655 87.9059 82.2385 88.4251H80.9391C80.8756 88.0968 80.7176 87.7942 80.4843 87.5545C80.221 87.3036 79.9062 87.1129 79.5617 86.9958C79.1428 86.8578 78.7034 86.7919 78.2623 86.8009C77.7484 86.7902 77.2384 86.8922 76.7681 87.0997C76.3591 87.2856 76.0184 87.5945 75.7935 87.9833C75.5508 88.4009 75.4294 88.8779 75.4427 89.3607C75.4269 89.8479 75.5485 90.3297 75.7935 90.7511C76.0436 91.1332 76.3943 91.439 76.807 91.6346C77.786 92.0326 78.8817 92.0326 79.8606 91.6346C80.2674 91.4731 80.6223 91.2035 80.8871 90.855C81.0035 90.6916 81.0954 90.5121 81.16 90.3223ZM89.0219 89.8286C89.0284 90.2084 88.939 90.5838 88.7621 90.92C88.5814 91.2198 88.3203 91.4629 88.0084 91.6217C87.6352 91.7978 87.2254 91.8824 86.813 91.8686C86.409 91.8818 86.0078 91.7971 85.6435 91.6217C85.3256 91.4667 85.0593 91.223 84.8769 90.92C84.6999 90.5838 84.6105 90.2084 84.617 89.8286V85.8134H83.3176V89.8805C83.3066 90.4513 83.4551 91.0138 83.7464 91.5048C84.0509 91.9709 84.478 92.3441 84.9808 92.5833C85.5552 92.8403 86.1773 92.9731 86.8065 92.9731C87.4357 92.9731 88.0578 92.8403 88.6321 92.5833C89.1361 92.3512 89.5608 91.9761 89.8536 91.5048C90.1548 91.0175 90.3082 90.4533 90.2954 89.8805V85.8134H88.996L89.0219 89.8286ZM93.1149 89.8545L92.79 91.7776H97.7667V92.8561H91.3607L91.9454 89.3348L91.3607 85.8264H97.7147V86.8919H92.79L93.1149 88.828H97.4808V89.8545H93.1149Z" fill="black"/>
</svg>
