<?xml version="1.0" encoding="UTF-8" standalone="no"?>
<!DOCTYPE svg PUBLIC "-//W3C//DTD SVG 1.1//EN" "http://www.w3.org/Graphics/SVG/1.1/DTD/svg11.dtd"><svg width="100%"
	height="100%" viewBox="0 0 874 755" version="1.1" xmlns="http://www.w3.org/2000/svg"
	xmlns:xlink="http://www.w3.org/1999/xlink" xml:space="preserve" xmlns:serif="http://www.serif.com/" fill="#da1d2a"
	style="stroke-linejoin:round;stroke-miterlimit:2;">
	<g id="Black">
		<path
			d="M445.548,29.345c0,0 0.113,8.784 -7.995,6.984c-0,-0 1.125,5.066 6.079,6.304c-0,-0 -4.954,10.471 8.9,14.187c-0,0 -9.35,-0.562 -10.813,7.771c0,0 -1.575,7.771 6.309,11.263c-0,-0 -14.53,1.987 -9.013,14.412c0,0 4.883,10.85 17.983,14.225c0,0 7.355,2.179 18.167,-1.275c0,0 7.771,-2.667 16.475,-2.892c7.896,-0.204 14.754,0.771 25.15,6.084c0,-0 3.079,1.441 6.304,4.129c2.521,2.092 6.096,5.671 9.5,9.683c0,0 3.488,4.617 7.959,4.654c-0,0 9.833,0.638 11.183,-10.395c-0,-0 0.904,-8.784 -7.204,-19.709c-0,0 -4.554,-6.241 -9.459,-13.175c-4.258,-6.016 -8.67,-12.05 -11.825,-17.341c0,-0 -10.583,-16.442 -1.912,-35.246c-0,-0 7.771,-20.496 31.304,-24.325c0,-0 9.458,-1.688 18.017,1.354c-0,-0 -2.142,10.358 6.866,17.904c0,0 13.517,10.358 26.125,-1.129c0,-0 5.692,1.071 4.392,7.883c0,0 -0.9,3.942 -5.571,4.617c0,-0 0,8.054 -7.433,10.529c-0,0 -3.096,1.242 -6.533,0.225c-0,0 -3.492,7.154 -11.034,2.983c0,0 3.546,-18.129 -14.808,-27.925c-0,0 -18.696,-9.908 -33.554,8.221c-0,0 -7.213,8.896 -3.721,24.438c-0,-0 2.592,7.766 6.646,12.95l17.116,24.546c0,-0 7.434,9.35 8.446,19.483c0,-0 1.692,8.783 -3.154,17.117c0,-0 -2.475,4.729 -9.683,7.091c-0,0 -6.529,1.129 -8.225,7.771c-0,0 -1.909,9.121 8.112,12.95c0,0 7.092,2.704 13.963,-1.237c-0,-0 6.754,-3.83 5.629,-12.275c-0,-0 4.167,6.87 10.246,4.841c-0,0 4.958,-0.562 7.208,-6.079c0,0 -2.812,7.883 4.054,12.613c0,-0 -9.121,12.162 -5.854,28.712c0,0 2.7,16.554 17.454,26.238c0,-0 -12.5,-3.6 -20.158,8.333c-0,-0 -5.967,10.587 1.804,19.933l-25.787,0c-0,0 -7.771,0.675 -8.28,-6.025c0,0 0.23,-5.629 -4.483,-6.175c0,0 -2.325,-0.3 -4.129,1.575c-0,0 -0.525,-1.95 -0.229,-3.337c-0,-0 1.466,-10.138 15.433,-11.038c0,0 11.596,-0.225 14.188,-7.546c-0,0 5.741,-14.525 -4.505,-19.929c0,0 -6.758,-5.179 -24.55,6.979c0,0 -6.42,5.067 -8.67,9.463c-0,-0 -18.017,-0.567 -28.83,-46.808c0,-0 -10.512,0.45 -13.512,13.512c-0,0 -2.854,15.313 2.254,22.671c0,-0 3.45,6.008 7.958,4.954c0,0 -7.512,2.854 -5.708,11.713c0,-0 -5.854,-9.984 -23.312,5.666c-0,0 -10.805,9.35 -16.888,24.55l-30.067,0c0,0 -5.741,-0.225 -5.441,-6.383c-0,-0 0.262,-5.067 -3.867,-6.117c0,0 -2.104,-0.6 -4.054,1.2l0.283,-3c0,0 1.313,-9.233 15.221,-10.362c0,-0 6.529,-0.675 12.158,3.041c0,0 6.534,4.055 17.005,-3.041c-0,-0 17.795,-12.046 7.77,-25.675c0,-0 -10.92,-13.85 -28.375,-5.517c0,0 4.275,-14.75 23.759,-29.167c-0,0 13.175,-10.02 24.325,-11.595c-0,-0 -14.413,-6.084 -42.792,6.529c0,-0 -16.554,6.871 -20.608,18.354c-0,-0 -2.138,-5.742 -8.896,-5.854c-0,-0 -5.971,-0.675 -9.796,6.983c0,0 0.113,-6.983 -6.083,-8.108c-0,-0 -4.279,-0.788 -7.092,2.812c0,0 0.338,-6.304 -6.983,-7.316c-0,-0 -7.434,-0.225 -7.771,7.995c-0,0 -4.504,-7.32 -20.946,0.9c0,0 -11.821,5.292 -19.479,20.38c-0,-0 -15.204,-6.417 -25.45,8.445c-0,0 0.337,-4.729 -5.067,-5.179c-5.404,-0.45 -5.858,4.504 -5.858,4.504c-4.692,-2.587 -3.563,-7.92 -3.563,-7.92c0.713,-3.075 -0.679,-4.655 -0.679,-4.655c0,0 -1.987,-2.775 -7.016,-1.5c-0,0 -2.367,-9.458 6.866,-17.004c0,0 4.279,-3.379 7.884,-3.266c-0,-0 2.479,5.408 12.95,2.704c-0,-0 13.85,-3.042 29.504,-16.442c-0,0 18.241,-15.537 13.962,-25.787c0,-0 -3.966,-8.767 -29.458,5.358c-0,-0 5.104,-6.913 -8.663,-19.092c0,0 -9.325,-8.991 -26.183,-10.458c0,-0 0.275,-16.5 -17.342,-20.45c0,-0 4.513,-1.454 2.913,-6.638c-1.604,-5.183 -6.367,-3.75 -6.367,-3.75c0.65,-5.316 6.017,-6.266 6.017,-6.266c3.121,-0.488 4.062,-2.363 4.062,-2.363c0,0 1.834,-2.883 -1.229,-7.075c0,0 7.892,-5.725 18.338,0.021c-0,0 4.733,2.708 5.975,6.092c-0,-0 -4.088,4.316 2.333,13.021c0,-0 7.992,11.712 26.271,21.225c-0,-0 23.296,10.445 21.717,-8.25c-0,-0 4.508,1.504 9.012,2.254c0,-0 11.933,2.779 17.642,0.525c-0,-0 9.983,-2.025 11.712,-15.317c0,0 -8.483,0.829 -11.337,5.633c-0,0 -1.325,-7.25 -9.659,-10.812c0,-0 7.296,-1.538 11.8,-3.417c0,0 9.496,-3.45 3.3,-5.179c7.942,-2.829 7.434,-7.129 7.434,-7.129c-0.017,-1.604 -0.379,-2.492 -1.238,-3.417c-5.933,-6.383 -19.441,-2.7 -19.441,-2.7c-3.305,0.821 -9.163,4.484 -5.896,9.717c-0,-0 -8.879,-1.9 -10.95,-20.825c-0,-0 -2.492,-6.654 6.154,-9.371c-0,0 4.683,-5.829 14.725,-5.504c-0,-0 15.183,-12.833 33.312,-9.904c0,-0 12,1.671 17,7.404c0,-0 10.588,2.225 17.738,-9.658c-0,-0 11.446,15.025 -9.4,24.55c-0,-0 7.808,8.633 13.512,4.166"
			fill="#da1d2a" />
		<path
			d="M378.053,52.876c-8.313,1.845 -11.734,-1.009 -11.734,-1.009c0,0 -18.821,4.709 -26.675,-11.333c0,-0 -1.7,-2.496 -3.816,-1.242c-3.342,3.342 4.229,11.159 4.229,11.159c6.537,6.32 16.071,6.579 16.071,6.579c14.408,0.512 21.925,-4.154 21.925,-4.154"
			fill="#da1d2a" />
		<path
			d="M489.493,641.347l-47.925,-28.267l31.85,-0.05l16.075,28.317Zm-32.962,-60.05l31.85,0.037l-47.904,28.296l16.054,-28.333Zm-19.375,26.7l-16.358,-28.275l16.429,-27.283l-0.071,55.558Zm-0.092,61.975l-16.162,-27.446l16.291,-28.196l-0.129,55.642Zm-51.462,-29.233l15.7,-27.709l32.562,0.025l-48.262,27.684Zm0.512,-59.442l31.85,-0.033l16.059,28.329l-47.909,-28.296Zm108.763,-3.433l-38.246,0.141l-19.263,-32.012l-19.408,31.871l-37.962,-0l18.745,32.929l-18.745,33.362l37.962,0l19.408,32.3l19.121,-32.3l38.388,0l-18.554,-33l18.554,-33.291Z"
			fill="#da1d2a" />
		<path
			d="M95.622,365.39l-42.325,0l0,-15.841l10,-0l-32.567,-31.688l0,31.688l10.405,-0l-0,15.841l-40.088,0l0,-15.841l10.963,-0l-0,-68.734l-10.563,0l0,-15.841l39.688,-0l-0,15.841l-10.405,0l0,29.846l31.13,-29.846l-8.884,0l0,-15.841l40.488,-0l-0,15.841l-8.242,0l-35.446,32.967l36.967,35.767l8.879,-0l0,15.841Z"
			fill="#231F20" />
		<path
			d="M188.598,314.662c-0,-9.066 -3.096,-16.858 -9.283,-23.362c-6.188,-6.509 -13.788,-9.763 -22.805,-9.763c-9.229,0 -17.187,3.171 -23.883,9.521c-6.696,6.346 -10.042,14.054 -10.042,23.125c0,9.333 3.213,17.375 9.642,24.121c6.429,6.75 14.229,10.121 23.404,10.121c9.121,-0 16.896,-3.317 23.325,-9.959c6.425,-6.641 9.642,-14.575 9.642,-23.804m19.442,-0.479c-0,14.667 -5.109,27.283 -15.321,37.846c-10.217,10.562 -22.579,15.842 -37.088,15.842c-14.454,-0 -26.791,-5.242 -37.004,-15.725c-10.217,-10.48 -15.325,-23.03 -15.325,-37.642c0,-14.35 5.213,-26.633 15.646,-36.85c10.425,-10.213 22.896,-15.321 37.404,-15.321c14.188,0 26.35,5.096 36.488,15.283c10.133,10.192 15.2,22.375 15.2,36.567"
			fill="#231F20" />
		<path
			d="M313.653,365.23l-40.083,0l-0,-15.841l11.041,-0l0,-24.805l-38.808,0l-0,24.805l10.321,-0l-0,15.841l-40.084,0l0,-15.841l11.042,-0l0,-68.571l-10.562,-0l-0,-15.842l39.604,0l-0,15.842l-10.8,-0l-0,24.162l39.204,0l0.083,-24.162l-10.562,-0l-0,-15.842l39.604,0l-0,15.842l-10.558,-0l-0,68.571l10.558,-0l-0,15.841Z"
			fill="#231F20" />
		<path d="M321.812,312.904l32.698,-0.079l0.027,11.279l-32.698,0.079l-0.027,-11.279Z" fill="#231F20" />
		<path
			d="M402.704,365.39l-40.084,0l0,-15.841l10.959,-0l-0,-68.734l-11.359,0l0,-15.841l40.484,-0l-0,15.841l-10.563,0l0,68.734l10.563,-0l-0,15.841Z"
			fill="#231F20" />
		<path d="M410.865,312.904l32.697,-0.079l0.028,11.279l-32.698,0.079l-0.027,-11.279Z" fill="#231F20" />
		<path
			d="M556.408,280.736l-10.725,0.079l-0,84.575l-17.638,-0l-46.608,-66.413l0.083,50.571l10.158,0l0,15.842l-40.329,-0l0,-15.842l10.963,0l-0,-68.733l-10.479,-0l-0,-15.842l28.004,0l47.283,67.054l0.083,-51.212l-10.562,-0l-0,-15.842l39.767,0l-0,15.763Z"
			fill="#231F20" />
		<path
			d="M648.982,314.662c-0,-9.066 -3.096,-16.858 -9.284,-23.362c-6.187,-6.509 -13.791,-9.763 -22.8,-9.763c-9.229,0 -17.187,3.171 -23.883,9.521c-6.696,6.346 -10.042,14.054 -10.042,23.125c0,9.333 3.213,17.375 9.642,24.121c6.425,6.75 14.229,10.121 23.404,10.121c9.121,-0 16.892,-3.317 23.321,-9.959c6.429,-6.641 9.642,-14.575 9.642,-23.804m19.441,-0.479c0,14.667 -5.108,27.283 -15.32,37.846c-10.217,10.562 -22.58,15.842 -37.084,15.842c-14.454,-0 -26.791,-5.242 -37.008,-15.725c-10.213,-10.48 -15.321,-23.03 -15.321,-37.642c0,-14.35 5.213,-26.633 15.642,-36.85c10.429,-10.213 22.891,-15.321 37.408,-15.321c14.183,0 26.346,5.096 36.479,15.283c10.138,10.192 15.204,22.375 15.204,36.567"
			fill="#231F20" />
		<path
			d="M761.079,314.662c0,-9.066 -3.096,-16.858 -9.283,-23.362c-6.188,-6.509 -13.792,-9.763 -22.8,-9.763c-9.229,0 -17.188,3.171 -23.883,9.521c-6.696,6.346 -10.042,14.054 -10.042,23.125c-0,9.333 3.212,17.375 9.642,24.121c6.425,6.75 14.229,10.121 23.404,10.121c9.121,-0 16.896,-3.317 23.321,-9.959c6.429,-6.641 9.641,-14.575 9.641,-23.804m19.442,-0.479c-0,14.667 -5.108,27.283 -15.321,37.846c-10.217,10.562 -22.579,15.842 -37.083,15.842c-14.454,-0 -26.792,-5.242 -37.009,-15.725c-10.212,-10.48 -15.32,-23.03 -15.32,-37.642c-0,-14.35 5.212,-26.633 15.641,-36.85c10.429,-10.213 22.892,-15.321 37.409,-15.321c14.183,0 26.345,5.096 36.479,15.283c10.137,10.192 15.204,22.375 15.204,36.567"
			fill="#231F20" />
		<path
			d="M853.253,299.78c-0,-4.321 -1.471,-8.267 -4.421,-11.842c-3.163,-3.787 -6.938,-5.683 -11.334,-5.683l-18.729,-0l0,36.487l14.55,0c5.575,0 10.234,-1.679 13.984,-5.041c3.966,-3.571 5.95,-8.213 5.95,-13.921m20.641,65.612l-24,0l-31.125,-44.65l0,28.804l8,0l0,15.846l-37.929,0l0,-15.846l11.046,0l-0,-68.729l-10.404,0l-0,-15.841l49.291,-0c9.121,-0 17.009,3.52 23.68,10.57c6.508,6.888 9.762,14.709 9.762,23.467c0,9.558 -2.346,16.821 -7.042,21.783c-3.841,4.059 -9.812,7.1 -17.92,9.13l15.358,19.62l11.283,0l0,15.846Z"
			fill="#231F20" />
		<path
			d="M92.761,489.834l-37.646,-0l0,-15.846l10.367,-0l-0,-24.8l-36.442,-0l0,24.8l9.692,-0l-0,15.846l-37.646,-0l-0,-15.846l10.371,-0l-0,-68.571l-9.921,-0l-0,-15.838l37.196,0l-0,15.838l-10.142,-0l0,24.167l36.817,-0l0.075,-24.167l-9.917,-0l0,-15.838l37.196,0l-0,15.838l-9.917,-0l0,68.571l9.917,-0l-0,15.846Z"
			fill="#231F20" />
		<path
			d="M161.743,446.066l-11.575,-34.087l-11.871,34.087l23.446,0Zm39.075,43.925l-39.15,0l-0,-15.845l9.167,-0l-4.434,-13.275l-32.612,-0l-5.563,13.275l10.071,-0l0,15.845l-38.096,0l0,-15.845l9.617,-0l27.879,-68.725l-10.521,-0l0,-15.842l31.184,-0l32.687,84.567l9.771,-0l-0,15.845Z"
			fill="#231F20" />
		<path
			d="M268.896,424.382c-0,-4.321 -1.383,-8.267 -4.15,-11.842c-2.971,-3.787 -6.517,-5.683 -10.646,-5.683l-17.587,-0l-0,36.487l13.662,0c5.233,0 9.613,-1.679 13.133,-5.041c3.725,-3.571 5.588,-8.213 5.588,-13.921m19.387,65.612l-22.541,0l-29.229,-44.65l-0,28.805l7.512,-0l0,15.845l-35.621,0l0,-15.845l10.371,-0l0,-68.73l-9.767,0l0,-15.841l46.288,-0c8.567,-0 15.979,3.521 22.242,10.571c6.112,6.887 9.166,14.708 9.166,23.466c0,9.559 -2.204,16.821 -6.608,21.784c-3.608,4.058 -9.221,7.1 -16.833,9.129l14.425,19.621l10.595,-0l0,15.845Z"
			fill="#231F20" />
		<path
			d="M367.858,439.305c0,-8.654 -2.204,-16.159 -6.612,-22.513c-4.758,-6.837 -10.821,-10.254 -18.183,-10.254l-19.767,0l-0,65.929l19.387,0c7.467,0 13.605,-3.441 18.413,-10.333c4.508,-6.458 6.762,-14.071 6.762,-22.829m18.713,0.641c-0,13.346 -3.883,24.9 -11.65,34.675c-8.117,10.246 -18.083,15.371 -29.908,15.371l-48.917,0l-0,-15.846l10.296,0l-0,-68.729l-9.921,0l-0,-15.841l48.392,-0c11.925,-0 21.941,5.129 30.058,15.375c7.767,9.82 11.65,21.487 11.65,34.995"
			fill="#231F20" />
		<path
			d="M468.773,420.861l-14.35,0l-0,-14.562l-13.9,-0l-0,67.85l9.841,-0l0,15.842l-38.021,-0l0,-15.842l10.221,-0l0.075,-67.929l-14.204,0.079l0,14.4l-13.825,-0l0,-31.121l74.163,0l-0,31.283Z"
			fill="#231F20" />
		<path
			d="M597.722,489.993l-37.721,-0l-0,-15.846l10.292,-0l-0,-58.408l-27.425,74.254l-12.475,-0l-26,-74.892l-0,59.046l9.991,-0l0,15.846l-37.716,-0l-0,-15.846l10.366,-0l0,-68.729l-10.366,-0l-0,-15.842l35.154,0l24.921,69.85l25.97,-69.85l35.009,0l-0,15.842l-10.142,-0l0,68.729l10.142,-0l-0,15.846Z"
			fill="#231F20" />
		<path
			d="M692.025,405.419l-10.216,-0l-0,53.82c-0,10.038 -3.304,18.1 -9.917,24.184c-6.212,5.712 -13.908,8.566 -23.075,8.566c-9.562,0 -17.454,-2.958 -23.667,-8.887c-6.662,-6.35 -9.995,-14.975 -9.995,-25.867l-0,-51.816l-9.617,-0l-0,-15.842l36.217,-0l-0,15.842l-8.638,-0l0,52.708c0,4.754 1.475,8.575 4.433,11.458c2.95,2.884 6.563,4.325 10.817,4.325c4.363,0 8.079,-1.454 11.163,-4.366c3.079,-2.909 4.625,-6.713 4.625,-11.417l-0,-52.708l-8.421,-0l-0,-15.842l36.291,-0l0,15.842Z"
			fill="#231F20" />
		<path
			d="M774.608,420.861l-14.35,0l-0,-14.562l-13.9,-0l-0,67.85l9.846,-0l-0,15.842l-38.025,-0l-0,-15.842l10.216,-0l0.08,-67.929l-14.205,0.079l0,14.4l-13.825,-0l0,-31.121l74.163,0l-0,31.283Z"
			fill="#231F20" />
		<path
			d="M873.878,489.834l-37.65,-0l-0,-15.846l10.371,-0l-0,-24.8l-36.446,-0l-0,24.8l9.692,-0l-0,15.846l-37.65,-0l-0,-15.846l10.375,-0l-0,-68.571l-9.917,-0l-0,-15.838l37.192,0l-0,15.838l-10.142,-0l-0,24.167l36.821,-0l0.075,-24.167l-9.921,-0l-0,-15.838l37.2,0l-0,15.838l-9.925,-0l-0,68.571l9.925,-0l-0,15.846Z"
			fill="#231F20" />
		<path
			d="M300.115,742.378c0,3.708 -1.333,6.7 -3.995,8.971c-2.463,2.112 -5.484,3.175 -9.071,3.175c-1.871,-0 -3.496,-0.325 -4.879,-0.958c-1.384,-0.638 -2.742,-1.684 -4.075,-3.15l-0,2.929l-6.188,-0l0,-11.088l8.304,0c0,1.596 0.6,2.967 1.804,4.104c1.205,1.134 2.55,1.705 4.034,1.705c1.358,-0 2.462,-0.392 3.308,-1.18c0.946,-0.866 1.421,-2.075 1.421,-3.616c-0,-2.271 -1.575,-3.896 -4.729,-4.871c-1.688,-0.463 -3.367,-0.933 -5.034,-1.425c-3.075,-1.079 -5.325,-2.408 -6.762,-3.979c-1.667,-1.809 -2.5,-4.196 -2.5,-7.146c-0,-3.571 1.246,-6.446 3.729,-8.613c2.308,-2 5.163,-3.004 8.571,-3.004c1.662,0 3.092,0.25 4.283,0.75c1.192,0.509 2.417,1.363 3.671,2.584l0,-2.317l6.033,-0l0,10.192l-7.991,-0c-0,-1.325 -0.429,-2.4 -1.288,-3.23c-0.858,-0.829 -2.008,-1.237 -3.441,-1.237c-1.28,-0 -2.292,0.283 -3.034,0.85c-0.9,0.683 -1.346,1.737 -1.346,3.171c0,1.516 0.755,2.733 2.267,3.654c1.025,0.625 2.508,1.137 4.458,1.542c1.488,0.295 2.946,0.775 4.38,1.425c2.254,1.004 4.045,2.262 5.383,3.779c1.787,2.004 2.687,4.329 2.687,6.983"
			fill="#231F20" />
		<path
			d="M317.023,710.659l-8.108,0l-0,-8.25l8.108,0l-0,8.25Zm4.383,42.725l-17.371,0l0,-8.12l4.65,-0l0,-21.934l-4.537,0l-0,-8.041l13.029,-0l0,29.975l4.229,-0l0,8.12Z"
			fill="#231F20" />
		<path
			d="M363.177,753.385l-16.063,-0l0,-8.121l4.188,-0l-0,-15.304c-0,-1.946 -0.671,-3.629 -2.017,-5.021c-1.346,-1.396 -2.942,-2.092 -4.783,-2.092c-2.459,0 -4.409,1.025 -5.842,3.084c-1.075,1.55 -1.617,3.02 -1.617,4.4l0,14.933l4.075,-0l0,8.121l-15.754,-0l0,-8.121l4.188,-0l-0,-21.938l-4.342,0l0,-8.037l11.833,-0l0,4.954c2.35,-4.142 5.642,-6.217 9.884,-6.217c3.879,0 6.875,1.446 8.996,4.317c2.045,2.8 3.062,6.638 3.062,11.525l0,15.396l4.192,-0l-0,8.121Z"
			fill="#231F20" />
		<path
			d="M403.527,740.471c-1.279,4.263 -3.587,7.671 -6.917,10.225c-3.229,2.471 -6.837,3.704 -10.837,3.704c-5.225,0 -9.721,-1.962 -13.488,-5.896c-3.766,-3.933 -5.65,-8.662 -5.65,-14.187c0,-5.363 1.838,-10.067 5.513,-14.083c3.679,-4.03 7.883,-6.042 12.625,-6.042c2.079,-0 3.933,0.404 5.575,1.221c1.433,0.7 2.996,1.891 4.687,3.571l0,-3.734l7.034,0l-0,12.917l-7.725,-0c-1.054,-1.85 -2.321,-3.192 -3.804,-4.046c-1.488,-0.846 -3.317,-1.275 -5.496,-1.275c-3,0 -5.471,1.167 -7.417,3.496c-1.846,2.225 -2.767,4.933 -2.767,8.133c0,3.125 1.03,5.817 3.092,8.079c2.063,2.267 4.554,3.396 7.475,3.396c3.946,0 6.904,-1.825 8.879,-5.479l9.221,0Z"
			fill="#231F20" />
		<path
			d="M436.384,731.212c-0.487,-2.766 -1.587,-4.971 -3.304,-6.616c-1.846,-1.763 -4.112,-2.646 -6.804,-2.646c-2.996,-0 -5.496,0.883 -7.492,2.646c-1.821,1.616 -3.05,3.82 -3.691,6.616l21.291,0Zm7.954,2.963c0,0.975 -0.02,1.662 -0.058,2.071c-0.037,0.408 -0.121,0.933 -0.25,1.587l-29.012,0c0.562,2.679 1.945,4.883 4.15,6.617c2.1,1.654 4.433,2.475 6.991,2.475c1.975,-0 3.575,-0.363 4.809,-1.092c1.045,-0.625 2.187,-1.762 3.416,-3.412l8.417,-0c-1.458,3.812 -3.638,6.791 -6.533,8.916c-2.896,2.121 -6.263,3.188 -10.109,3.188c-5.454,-0 -9.962,-1.984 -13.525,-5.934c-3.433,-3.816 -5.15,-8.512 -5.15,-14.091c0,-5.467 1.838,-10.175 5.517,-14.113c3.675,-3.941 8.1,-5.908 13.275,-5.908c5.229,-0 9.596,2.071 13.104,6.208c3.304,3.909 4.958,8.4 4.958,13.488"
			fill="#231F20" />
		<path
			d="M488.797,753.139l-20.25,-0l-0,-8.367l5.646,0l-0,-34.437l-7.067,-0l-0,-8.042l15.95,0l-0,42.604l5.721,0l-0,8.242Z"
			fill="#231F20" />
		<path
			d="M524.808,710.869l-17.909,42.517l-9.837,0l18.558,-42.808l-14.025,-0l0.038,8.246l-8.65,-0l-0,-16.45l31.825,-0l-0,8.495Z"
			fill="#231F20" />
		<path
			d="M555.588,720.164c0,-2.654 -0.912,-4.929 -2.725,-6.825c-1.82,-1.891 -4,-2.841 -6.537,-2.841c-2.433,-0 -4.508,0.933 -6.225,2.804c-1.713,1.862 -2.571,4.096 -2.571,6.7c0,2.571 0.879,4.792 2.65,6.658c1.767,1.871 3.879,2.804 6.338,2.804c2.462,0 4.587,-0.904 6.383,-2.72c1.792,-1.813 2.687,-4.013 2.687,-6.58m8.842,0.55c0,2.246 -0.396,4.455 -1.196,6.617c-0.591,1.625 -1.483,3.354 -2.687,5.196l-13.567,20.858l-10.029,0l11.187,-16.816c-1.108,0.433 -1.745,0.679 -1.925,0.733c-0.745,0.192 -1.45,0.283 -2.112,0.283c-4.617,0 -8.354,-1.762 -11.221,-5.279c-2.721,-3.333 -4.075,-7.404 -4.075,-12.229c0,-5.167 1.738,-9.596 5.225,-13.279c3.488,-3.675 7.683,-5.525 12.604,-5.525c4.921,-0 9.113,1.916 12.588,5.746c3.466,3.829 5.208,8.391 5.208,13.695"
			fill="#231F20" />
		<path
			d="M594.053,738.841l-0,-21.725c-0,-1.95 -0.821,-3.658 -2.459,-5.116c-1.641,-1.463 -3.579,-2.192 -5.804,-2.192c-2.204,0 -4.137,0.783 -5.804,2.354c-1.558,1.488 -2.342,3.059 -2.342,4.713l0,21.729c0,2.112 0.846,3.883 2.538,5.317c1.691,1.433 3.625,2.154 5.8,2.154c2.004,-0 3.841,-0.788 5.533,-2.354c1.692,-1.571 2.538,-3.196 2.538,-4.88m9.07,-0.687c0,4.3 -1.741,8.108 -5.229,11.412c-3.483,3.305 -7.479,4.959 -11.991,4.959c-4.484,-0 -8.496,-1.65 -12.042,-4.938c-3.55,-3.291 -5.325,-7.016 -5.325,-11.187l-0,-22.096c-0,-3.6 1.712,-7.029 5.15,-10.279c3.583,-3.379 7.583,-5.075 11.992,-5.075c4.479,-0 8.512,1.671 12.083,5.021c3.575,3.341 5.362,6.979 5.362,10.904l0,21.279Z"
			fill="#231F20" />
		<rect x="0.794" y="609.022" width="379.204" height="4.425" fill="#da1d2a" />
		<rect x="494.777" y="609.022" width="379.2" height="4.425" fill="#da1d2a" />
		<rect x="0.96" y="141.376" width="294.2" height="4.429" fill="#da1d2a" />
		<path d="M873.878,145.804l-0,-4.429l-270.967,-0l0,4.429" fill="#da1d2a" />
	</g>
</svg>