<svg xmlns="http://www.w3.org/2000/svg" width="254" height="95" viewBox="0 0 254 95"><g fill="#F65C00"><path d="M101.624895,48.7062649 L107.516714,57.0655072 C103.617001,60.9969072 89.9468835,73.3213498 69.4279752,73.3213498 C40.5223618,73.3213498 38.707707,51.9954588 9.92250721,51.9954588 L1.49355176,51.9954588 L0,43.3193385 L32.5053478,10.1886847 L7.30086968,10.1886847 L9.24438823,0 L50.5335948,0 L48.7442902,9.33100156 L17.2022517,41.5215838 C41.3969451,41.5215838 47.3648146,63.3481421 71.1053162,63.3481421 C85.5739668,63.3481421 97.4357675,53.2207205 101.624895,48.7062649" transform="translate(.803 21.679)"/><path d="M30.0062364,0 C12.2821922,0 0,15.2735208 0,32.8877139 C0,45.2755321 8.11630247,54.3488062 21.2456153,54.3488062 C38.9738845,54.3488062 51.3574777,39.1914741 51.3574777,21.5688309 C51.3574777,10.0471459 43.9953449,0 30.0062364,0 M22.9525316,44.7452896 C16.655109,44.7452896 12.8124348,39.7217166 12.8124348,32.5666108 C12.8124348,22.8638057 18.5775023,9.60985422 28.5105721,9.60985422 C36.0945195,9.60985422 38.4415294,16.2304924 38.4415294,21.5688309 C38.4415294,31.9244047 32.2455078,44.7452896 22.9525316,44.7452896" transform="translate(50.798 20.504)"/><path d="M46.2303913,14.6292021 C46.2303913,5.9826571 39.7174916,0 29.4738813,0 C11.5280225,0 0,17.0860631 0,32.7820879 C0,45.4910092 6.93751622,54.3509188 21.3512413,54.3509188 C27.6507764,54.3509188 34.5904052,52.857367 39.7174916,50.189254 L38.5450429,41.1096424 C34.8101072,43.0320357 30.1076374,44.5277 24.2411689,44.5277 C19.3211094,44.5277 15.5882863,42.7172702 13.5623794,39.187249 C12.3878182,37.1613422 11.9610892,33.6376586 12.1702287,31.8230037 C32.2412827,32.2497328 46.2303913,27.9845546 46.2303913,14.6292021 M27.868366,9.2929762 C31.8208912,9.2929762 34.4890042,11.3231081 34.4890042,14.6292021 L34.4890042,14.7411657 C34.4890042,20.9329623 26.2670757,22.7433921 13.4546409,22.5384776 C14.9503052,16.2304924 20.0752791,9.2929762 27.868366,9.2929762" transform="translate(108.292 20.505)"/><path d="M27.0127953,9.2929762 C31.2821986,9.2929762 34.8101072,10.5731634 36.7282756,11.6399861 L39.9329686,2.66811297 C37.5859587,1.28018722 33.0968534,0 27.6550015,0 C15.3728092,0 6.61641315,7.04947978 6.61641315,17.0860631 C6.61641315,23.0687202 10.8942665,27.445862 16.8726985,30.6442175 C21.9976725,33.3165555 23.7024762,35.3466874 23.7024762,38.6570065 C23.7024762,42.0771766 20.7090352,44.9544291 15.7002499,45.0621676 C11.002005,45.0621676 5.87069353,43.0320357 3.20891813,41.542709 L0,50.5082446 C2.77162645,52.5383765 8.43318049,54.2431802 14.5214636,54.3551438 C27.0127953,54.3551438 36.6226495,47.9478701 36.6226495,36.5191361 C36.6226495,29.8984979 31.4955631,25.6333197 25.8403466,22.5384776 C21.4674299,20.2886436 19.116195,18.2648493 19.116195,15.3770343 C19.116195,11.8575757 22.3145505,9.2929762 27.0127953,9.2929762" transform="translate(213.264 20.503)"/><path d="M0,7.58817243 C0,3.1011796 3.42228266,0 7.47620886,0 C11.3167705,0 14.092622,2.78852662 14.092622,6.7368268 C13.9891085,11.318883 10.5731634,14.2088106 6.4114987,14.2088106 L6.30376017,14.2088106 C2.56459948,14.2088106 0,11.4287341 0,7.58817243" transform="translate(203.778)"/><polyline points="0 51.993 12.384 51.993 22.315 0 9.927 0" transform="translate(192.127 21.689)"/><path d="M18.8584675,56.5669524 C15.1805699,56.5669524 13.2877518,54.3023308 14.2172607,49.6590115 L19.4879985,22.9567566 L31.1448848,22.9567566 L33.0672781,13.3511274 L21.3111034,13.3511274 L23.8820404,0 L11.0400304,3.73282313 L9.12397458,13.3511274 L1.8231049,13.3511274 L0,22.9567566 L7.30086968,22.9567566 L1.91394327,50.4216313 C0.00422504033,60.3103381 5.00878531,66.5190349 16.3572436,66.5190349 C18.9746561,66.5190349 21.8054331,65.9148541 24.5115715,65.2515228 L24.9129503,55.5867431 C22.8574682,56.1043105 20.846349,56.5669524 18.8584675,56.5669524" transform="translate(160.03 8.335)"/></g></svg>