<?xml version="1.0" encoding="utf-8"?>
<!-- Generator: Adobe Illustrator 28.0.0, SVG Export Plug-In . SVG Version: 6.00 Build 0)  -->
<svg version="1.1" id="Vrstva_1" xmlns="http://www.w3.org/2000/svg" xmlns:xlink="http://www.w3.org/1999/xlink" x="0px" y="0px"
	 viewBox="0 0 2000 322.3" style="enable-background:new 0 0 2000 322.3;" xml:space="preserve">
<style type="text/css">
	.st0{fill:#FFFFFF;}
</style>
<g>
	<path class="st0" d="M68.9,310.9H0V6.3h68.9v161l196.5-161h94.3L188,144.6l185.5,166.2h-97.4L137.2,185.5l-68.3,54.7V310.9z"/>
	<path class="st0" d="M454.7,108.2c26.8-17,46.6-24.3,78.9-24.3c13.8,0,28.3,2.2,41.3,6.2V148c-15.6-6.9-34.8-8.9-53.7-8.9
		c-28.6,0-43.7,8.3-66.2,21v150.8h-66.7V90H455v18.1h-0.3V108.2z"/>
	<path class="st0" d="M685.9,6.3v48.6h-66.4V6.3H685.9z M685.9,90v220.8h-66.4V90H685.9z"/>
	<path class="st0" d="M755.4,238.7c25,18.5,71.1,30.5,106.6,30.5c46.1,0,67.8-10.2,67.8-24.7c0-17.4-23.9-22.1-71.4-24.3
		c-72.5-2.9-117.5-18.5-117.5-64.5c0-46.4,52.6-72.5,126.5-72.5c47.1,0,90.3,8.7,125.5,26.8L965,153.5c-25-13.4-63.8-21.8-99-21.8
		c-41.3,0-60.2,8.7-60.2,22.8c0,13.8,20.7,20.3,71.1,22.1c67.1,2.2,124,18.1,124,66c0,49.3-59.8,75.8-136.7,75.8
		c-46.8,0-100.8-11.2-134.5-31.5L755.4,238.7z"/>
	<g>
		<g>
			<path class="st0" d="M1544.4,83.2c-46.1,0-85.9,10.2-123.3,29.4l18.9,43.1c25.7-15.6,60.6-25,95-25c42.8,0,75.8,13.4,75.8,45.7
				v3.6c-27.2-8-54.8-12.7-89.6-12.7c-61.3,0-115.7,21.4-115.7,78.7c0,50.8,47.5,72.5,99,72.5c42.1,0,77.2-8.3,106.6-27.9v20.3h66.4
				V180.7C1677.5,113.3,1625.3,83.2,1544.4,83.2z M1610.8,247.8c-21.8,14.9-49.3,23.6-80.9,23.6c-29.7,0-53.7-8.7-53.7-30.8
				c0-24.3,30.1-32.6,66.7-32.6c26.1,0,46.1,3.6,67.8,9.1L1610.8,247.8L1610.8,247.8z"/>
		</g>
	</g>
	<path class="st0" d="M1795.8,90v19.2c28.6-15.6,61.9-25.5,98.2-25.5c62,0,106,28,106,90v137.1h-66.7V187.6c0-37-25-48.6-60.9-48.6
		c-30.5,0-53.7,8.3-76.9,22.1v149.8h-66.7V90H1795.8z"/>
	<rect x="1296.8" y="6.3" class="st0" width="66.4" height="48.6"/>
	<path class="st0" d="M1129,90V6.2l-66.4,48.6V90h-37v49h37v88.1c0,72.2,49.3,90.7,111,90.7c29.4,0,53.7-5.4,74.3-14.1l-14.9-49
		c-12.7,6.2-32.3,12-52.6,12c-29.4,0-51.5-10.2-51.5-45.7v-81.9h167.8V311h66.4V90H1129z"/>
</g>
</svg>
