<?xml version="1.0" encoding="UTF-8" standalone="no"?>
<!DOCTYPE svg PUBLIC "-//W3C//DTD SVG 1.1//EN" "http://www.w3.org/Graphics/SVG/1.1/DTD/svg11.dtd">
<svg width="100%" height="100%" viewBox="0 0 1174 333" preserveAspectRatio="xMidYMid meet" version="1.1"
    xmlns="http://www.w3.org/2000/svg" xmlns:xlink="http://www.w3.org/1999/xlink" xml:space="preserve"
    xmlns:serif="http://www.serif.com/"
    style="fill-rule:evenodd;clip-rule:evenodd;stroke-linejoin:round;stroke-miterlimit:2;">
    <g>
        <clipPath id="_clip1">
            <rect x="0" y="0.015" width="1174" height="332.234" />
        </clipPath>
        <g clip-path="url(#_clip1)">
            <path
                d="M220.744,124.603C181.77,124.603 150.144,156.229 150.144,195.202C150.144,234.176 181.77,265.802 220.744,265.802C259.717,265.802 291.343,234.176 291.343,195.202C291.024,156.229 259.717,124.603 220.744,124.603ZM220.744,229.065C202.215,229.065 187.52,214.05 187.52,195.202C187.52,176.354 202.535,161.34 220.744,161.34C238.953,161.34 253.967,176.354 253.967,195.202C253.967,214.05 238.953,229.065 220.744,229.065Z"
                style="fill:white;fill-rule:nonzero;" />
            <path
                d="M85.295,54.641C92.642,60.391 101.267,62.308 110.532,60.072C119.796,57.836 126.185,52.086 130.338,43.78C135.449,32.918 134.81,22.376 127.782,12.473C120.754,2.889 111.171,-1.264 99.351,0.334C84.336,2.25 73.475,15.029 73.794,33.238C73.475,39.946 77.308,48.252 85.295,54.641Z"
                style="fill:white;fill-rule:nonzero;" />
            <path
                d="M197.424,49.21C158.77,49.21 124.588,69.336 105.101,99.684C85.614,69.336 51.432,49.21 12.778,49.21L0.958,49.21C0.319,49.21 0,49.53 0,50.168L0,83.392C0,84.031 0.319,84.35 0.958,84.35L12.778,84.35C53.988,84.35 87.531,117.893 87.531,159.103L87.531,160.061C74.753,143.13 54.307,132.269 31.626,132.269L14.056,132.269L14.056,149.839C14.056,188.812 45.682,220.119 84.336,220.119L87.531,220.119L87.531,259.412C87.531,260.051 87.85,260.37 88.489,260.37L121.713,260.37C122.352,260.37 122.671,260.051 122.671,259.412L122.671,159.103C122.671,117.893 156.214,84.35 197.424,84.35L209.244,84.35C209.882,84.35 210.202,84.031 210.202,83.392L210.202,49.849C210.202,49.21 209.882,48.891 209.244,48.891L197.424,48.891L197.424,49.21Z"
                style="fill:white;fill-rule:nonzero;" />
            <path
                d="M412.098,120.13L412.098,134.186C401.556,128.117 389.417,124.922 376.638,125.242C341.498,126.2 312.747,154.631 310.831,189.452C308.594,228.745 339.901,261.33 378.875,261.33C391.014,261.33 402.514,258.135 412.418,252.704L412.418,268.997C412.418,285.928 398.681,299.345 382.069,299.345L380.152,299.345C363.221,299.345 349.804,285.608 349.804,268.997C349.804,268.677 349.485,268.677 349.485,268.677L317.539,268.677C317.22,268.677 317.22,268.997 317.22,268.997C317.22,303.817 345.332,332.249 380.472,332.249L381.75,332.249C416.57,332.249 445.002,304.137 445.002,268.997L445.002,120.13C445.002,119.491 444.683,119.172 444.044,119.172L413.376,119.172C412.417,119.172 412.098,119.811 412.098,120.13ZM378.555,227.467C360.027,227.467 345.012,212.134 345.012,193.286C345.012,174.438 360.027,159.104 378.555,159.104C397.084,159.104 411.14,173.479 412.098,191.688L412.098,194.563C411.14,212.772 396.445,227.467 378.555,227.467Z"
                style="fill:white;fill-rule:nonzero;" />
            <path
                d="M574.062,129.394L574.062,139.936C567.673,133.228 560.006,125.561 535.728,124.922C497.712,123.964 466.725,156.548 466.725,195.522C466.725,234.495 497.712,266.121 535.728,266.121C554.575,266.121 567.993,258.454 574.062,249.829L574.062,260.691C574.062,261.33 574.382,261.649 575.021,261.649L605.688,261.649C606.327,261.649 606.647,261.33 606.647,260.691L606.647,129.714C606.647,129.075 606.327,128.755 605.688,128.755L575.021,128.755C574.701,128.436 574.062,128.755 574.062,129.394ZM537.644,230.662C518.796,230.662 503.782,215.009 503.782,195.841C503.782,176.674 519.116,161.02 537.644,161.02C556.173,161.02 571.507,176.674 571.507,195.841C571.507,215.009 556.492,230.662 537.644,230.662Z"
                style="fill:white;fill-rule:nonzero;" />
            <path
                d="M842.085,79.24L842.085,142.172C837.293,136.742 826.751,125.241 803.751,124.922C765.735,123.963 734.748,156.548 734.748,195.522C734.748,234.495 765.735,266.121 803.751,266.121C822.598,266.121 836.016,258.135 842.085,249.51L842.085,260.691C842.085,261.329 842.405,261.649 843.044,261.649L873.711,261.649C874.35,261.649 874.67,261.329 874.67,260.691L874.67,79.24C874.67,78.601 874.35,78.281 873.711,78.281L843.044,78.281C842.405,78.281 842.085,78.92 842.085,79.24ZM805.028,229.064C786.819,229.064 772.124,214.05 772.124,195.202C772.124,176.354 786.819,161.34 805.028,161.34C823.237,161.34 837.932,176.354 837.932,195.202C837.932,214.05 823.237,229.064 805.028,229.064Z"
                style="fill:white;fill-rule:nonzero;" />
            <path
                d="M717.497,130.033C693.858,130.033 674.371,145.047 668.301,165.812L668.301,129.394C668.301,128.755 667.982,128.436 667.343,128.436L634.12,128.436C633.481,128.436 633.161,128.755 633.161,129.394L633.161,260.371C633.161,261.01 633.481,261.329 634.12,261.329L667.343,261.329C667.982,261.329 668.301,261.01 668.301,260.371L668.301,190.41L679.163,190.41C707.275,190.41 729.956,168.687 729.956,142.172L729.956,130.033L717.497,130.033Z"
                style="fill:white;fill-rule:nonzero;" />
            <path
                d="M993.188,217.564C992.868,217.564 992.549,217.564 992.549,217.883C989.354,222.355 985.521,226.189 981.049,228.745C976.257,231.62 971.145,232.897 965.395,232.897C959.965,232.897 954.853,231.62 950.381,229.383C945.908,227.147 942.394,223.953 939.519,220.119C936.644,216.286 933.769,211.174 933.13,204.466L1032.16,204.466C1033.12,196.799 1033.12,186.257 1030.24,176.673C1027.37,167.09 1022.9,158.145 1016.83,150.797C1010.76,143.13 1003.41,137.061 994.466,132.908C985.84,128.435 975.937,126.199 965.395,126.199C956.131,126.199 947.506,128.116 939.2,131.63C930.894,135.144 923.866,140.255 917.796,146.644C911.727,153.034 906.935,160.381 903.421,169.006C899.907,177.312 898.31,186.576 898.31,196.16C898.31,208.938 901.504,220.758 907.574,231.3C913.643,241.842 921.949,250.468 932.172,256.537C942.394,262.926 953.575,265.801 966.034,265.801C979.451,265.801 991.91,262.287 1002.77,254.62C1020.02,242.162 1028.01,227.147 1030.56,219.48C1030.88,218.841 1030.24,218.202 1029.61,218.202L993.188,218.202L993.188,217.564ZM941.436,168.367C944.311,165.173 947.825,162.617 951.978,160.7C956.131,158.784 960.603,157.825 965.395,157.825C970.187,157.825 974.659,158.784 978.812,160.7C982.965,162.617 986.479,165.173 989.354,168.687C992.23,171.881 994.146,175.715 995.105,179.548L935.686,179.548C936.644,175.395 938.561,171.881 941.436,168.367Z"
                style="fill:white;fill-rule:nonzero;" />
            <path
                d="M1174,176.993L1174,259.413C1174,260.052 1173.68,260.371 1173.04,260.371L1142.05,259.732C1141.42,259.732 1141.1,259.413 1141.1,258.774L1141.1,184.979C1141.1,179.868 1139.82,175.076 1137.26,170.923C1134.71,166.77 1131.83,163.895 1127.68,161.34C1123.53,158.784 1118.73,157.506 1113.62,157.506C1108.51,157.506 1103.72,158.784 1099.57,161.34C1099.57,161.34 1099.25,161.34 1099.25,161.659C1090.62,168.048 1086.15,176.035 1086.15,185.938L1086.15,260.052C1086.15,260.69 1085.83,261.01 1085.19,261.01L1054.2,261.01C1053.57,261.01 1053.25,260.69 1053.25,260.052L1053.25,130.033C1053.25,129.394 1053.57,129.075 1054.2,129.075L1084.55,129.075C1085.19,129.075 1085.51,129.394 1085.51,130.033L1085.51,142.492C1089.98,137.7 1095.41,132.269 1101.48,129.394C1107.87,126.519 1114.58,125.241 1121.61,125.241C1131.19,125.241 1141.1,126.838 1149.08,131.63C1157.07,136.422 1163.46,142.492 1167.93,150.478C1173.04,157.826 1174,167.409 1174,176.993Z"
                style="fill:white;fill-rule:nonzero;" />
        </g>
    </g>
</svg>