<svg xmlns="http://www.w3.org/2000/svg" width="170.604" height="48.343" viewBox="0 0 170.604 48.343"><g transform="translate(-146 -105)"><g transform="translate(146 105)"><path d="M81.617,134.272H98.969l5.343-5.343V93.6H86.96l-5.343,5.343Zm18.94,3.835H77.782V97.417l.561-.625,7.028-7.028h22.776v40.753Z" transform="translate(-77.782 -89.764)"/><path d="M149.7,111.12H146.5v-6.662l-3.491,6.662h-2.034l-3.511-6.7v6.7h-3.191V97.757h3.231L142,106.034l4.489-8.277H149.7Z" transform="translate(-92.222 -91.807)"/><g transform="translate(59.216 4.533)"><path d="M164.571,109.041a2.55,2.55,0,0,0,.718-1.865,2.524,2.524,0,0,0-.729-1.865,2.312,2.312,0,0,0-1.685-.729,2.393,2.393,0,0,0-1.735.729,2.739,2.739,0,0,0-.009,3.73,2.379,2.379,0,0,0,1.744.727,2.306,2.306,0,0,0,1.7-.727m2.194-5.655a5.32,5.32,0,0,1,0,7.6,5.52,5.52,0,0,1-3.89,1.475,5.611,5.611,0,0,1-3.939-1.475,5.3,5.3,0,0,1,0-7.6,5.608,5.608,0,0,1,3.939-1.475,5.517,5.517,0,0,1,3.89,1.475" transform="translate(-157.33 -97.402)"/><path d="M181.591,107.646a2.917,2.917,0,0,0,0-3.74,2.268,2.268,0,0,0-1.735-.728,2.345,2.345,0,0,0-1.726.738,2.741,2.741,0,0,0,0,3.721,2.361,2.361,0,0,0,1.726.728,2.283,2.283,0,0,0,1.735-.718m2.384-5.684a5.814,5.814,0,0,1,0,7.629,4.618,4.618,0,0,1-3.461,1.487,4.472,4.472,0,0,1-3.112-1.1v.8h-3.191V96.417H177.4v5.146a4.469,4.469,0,0,1,3.112-1.1,4.6,4.6,0,0,1,3.461,1.5" transform="translate(-161.645 -95.998)"/><path d="M191.341,100.621h3.191v10.013h-3.191Zm2.923-4.228a1.76,1.76,0,0,1,.529,1.277,1.687,1.687,0,0,1-.529,1.266,1.839,1.839,0,0,1-1.326.509,1.807,1.807,0,0,1-1.318-.509,1.7,1.7,0,0,1-.518-1.266,1.855,1.855,0,0,1,3.161-1.277" transform="translate(-165.962 -95.854)"/></g><rect width="3.191" height="14.361" transform="translate(90.009 4.952)"/><g transform="translate(94.763 4.952)"><path d="M209.09,104.868a2.089,2.089,0,0,0-.817,1.157H212.4a2.128,2.128,0,0,0-.759-1.177,2.058,2.058,0,0,0-1.256-.4,2.219,2.219,0,0,0-1.3.418m6.463,3.112h-7.34a2.586,2.586,0,0,0,.778,1.416,1.989,1.989,0,0,0,1.376.52,2.242,2.242,0,0,0,2.134-1.158l2.832.578a4.772,4.772,0,0,1-1.925,2.344,5.71,5.71,0,0,1-3.042.788,5.19,5.19,0,0,1-3.75-1.487,5.507,5.507,0,0,1,0-7.629,5.2,5.2,0,0,1,3.77-1.5,4.992,4.992,0,0,1,3.65,1.456,5.3,5.3,0,0,1,1.516,3.849Z" transform="translate(-205.082 -97.806)"/><path d="M233.787,104.279a2.13,2.13,0,0,0,1.507-.509,1.773,1.773,0,0,0,.549-1.366,1.712,1.712,0,0,0-.558-1.327,2.14,2.14,0,0,0-1.5-.508h-2.912v3.71Zm.38-6.523a4.975,4.975,0,0,1,3.581,1.266,4.88,4.88,0,0,1-.04,6.732,5.173,5.173,0,0,1-3.68,1.277h-3.153v4.089h-3.29V97.756Z" transform="translate(-210.834 -96.758)"/><path d="M253.961,101.612a4.255,4.255,0,0,1,1.067,3.022v6.144h-3.171v-5.465a2.093,2.093,0,0,0-.479-1.426,1.587,1.587,0,0,0-1.257-.549,1.809,1.809,0,0,0-1.505.7,3.348,3.348,0,0,0-.549,2.094v4.648h-3.191V96.416h3.191v5.305a4.121,4.121,0,0,1,3.092-1.256,3.649,3.649,0,0,1,2.8,1.146" transform="translate(-215.253 -96.416)"/><path d="M267.692,109.041a2.55,2.55,0,0,0,.718-1.865,2.524,2.524,0,0,0-.729-1.865,2.313,2.313,0,0,0-1.685-.729,2.39,2.39,0,0,0-1.734.729,2.738,2.738,0,0,0-.01,3.73,2.379,2.379,0,0,0,1.744.727,2.306,2.306,0,0,0,1.7-.727m2.194-5.655a5.32,5.32,0,0,1,0,7.6,5.519,5.519,0,0,1-3.89,1.475,5.608,5.608,0,0,1-3.939-1.475,5.3,5.3,0,0,1,0-7.6A5.6,5.6,0,0,1,266,101.91a5.515,5.515,0,0,1,3.89,1.475" transform="translate(-219.234 -97.82)"/><path d="M286.418,103a4.255,4.255,0,0,1,1.068,3.022v6.144h-3.171V106.7a2.093,2.093,0,0,0-.479-1.426,1.564,1.564,0,0,0-1.237-.549,1.841,1.841,0,0,0-1.525.688,3.342,3.342,0,0,0-.549,2.1v4.648h-3.191V102.155h3.191v.957a4.055,4.055,0,0,1,3.072-1.256A3.674,3.674,0,0,1,286.418,103" transform="translate(-223.548 -97.806)"/><path d="M296.9,104.868a2.092,2.092,0,0,0-.818,1.157h4.129a2.131,2.131,0,0,0-.758-1.177,2.059,2.059,0,0,0-1.257-.4,2.215,2.215,0,0,0-1.3.418m6.463,3.112h-7.341a2.6,2.6,0,0,0,.778,1.416,1.99,1.99,0,0,0,1.376.52,2.243,2.243,0,0,0,2.134-1.158l2.832.578a4.776,4.776,0,0,1-1.925,2.344,5.712,5.712,0,0,1-3.042.788,5.19,5.19,0,0,1-3.75-1.487,5.5,5.5,0,0,1,0-7.629,5.194,5.194,0,0,1,3.769-1.5,5,5,0,0,1,3.651,1.456,5.3,5.3,0,0,1,1.516,3.849Z" transform="translate(-227.526 -97.806)"/></g><path d="M149.7,139.972H146.5V133.31l-3.491,6.662h-2.034l-3.511-6.7v6.7h-3.191V126.608h3.231L142,134.885l4.489-8.277H149.7Z" transform="translate(-92.222 -99.181)"/><g transform="translate(59.741 30.478)"><path d="M168.188,141.122H165v-.957a4.056,4.056,0,0,1-3.072,1.257,3.669,3.669,0,0,1-2.822-1.147,4.257,4.257,0,0,1-1.067-3.022v-6.144h3.171v5.465a2.091,2.091,0,0,0,.479,1.426,1.565,1.565,0,0,0,1.236.549,1.844,1.844,0,0,0,1.526-.689,3.346,3.346,0,0,0,.549-2.1v-4.647h3.191Z" transform="translate(-158.035 -130.81)"/><path d="M176.867,137.769q.2,1.177,1.775,1.177a1.7,1.7,0,0,0,.947-.23.668.668,0,0,0,.349-.568q0-.558-1-.738l-2.035-.4q-2.912-.538-2.912-2.912a2.962,2.962,0,0,1,1.2-2.462,4.935,4.935,0,0,1,3.112-.928,5.505,5.505,0,0,1,3.042.778,3.294,3.294,0,0,1,1.505,2.094l-2.912.578a1.283,1.283,0,0,0-.529-.837,1.854,1.854,0,0,0-1.147-.339,1.33,1.33,0,0,0-.867.229.7.7,0,0,0-.269.549q0,.539.758.7l2.353.479a3.734,3.734,0,0,1,2.075,1.087,2.8,2.8,0,0,1,.7,1.925,2.862,2.862,0,0,1-1.257,2.493,5.632,5.632,0,0,1-3.291.878,6.379,6.379,0,0,1-3.182-.728,2.941,2.941,0,0,1-1.525-2.184Z" transform="translate(-162.053 -130.707)"/><path d="M191.45,133.719a2.091,2.091,0,0,0-.817,1.157h4.129A2.123,2.123,0,0,0,194,133.7a2.053,2.053,0,0,0-1.256-.4,2.218,2.218,0,0,0-1.3.418m6.463,3.112h-7.341a2.6,2.6,0,0,0,.778,1.416,1.991,1.991,0,0,0,1.376.52,2.243,2.243,0,0,0,2.134-1.158l2.832.578a4.775,4.775,0,0,1-1.925,2.344,5.712,5.712,0,0,1-3.042.788,5.19,5.19,0,0,1-3.75-1.487,5.5,5.5,0,0,1,0-7.629,5.2,5.2,0,0,1,3.77-1.5,4.991,4.991,0,0,1,3.649,1.456,5.3,5.3,0,0,1,1.516,3.849Z" transform="translate(-165.551 -130.707)"/><path d="M213.57,141.122h-3.191v-.957a4.056,4.056,0,0,1-3.072,1.257,3.672,3.672,0,0,1-2.822-1.147,4.26,4.26,0,0,1-1.067-3.022v-6.144h3.172v5.465a2.087,2.087,0,0,0,.479,1.426,1.563,1.563,0,0,0,1.236.549,1.846,1.846,0,0,0,1.527-.689,3.351,3.351,0,0,0,.548-2.1v-4.647h3.191Z" transform="translate(-169.634 -130.81)"/><path d="M235.632,131.834a4.015,4.015,0,0,1,1.1,2.923v6.263h-3.172v-5.585a1.882,1.882,0,0,0-.479-1.347,1.573,1.573,0,0,0-1.2-.508,1.745,1.745,0,0,0-1.426.648,2.92,2.92,0,0,0-.528,1.884v4.907h-3.191v-5.585a1.886,1.886,0,0,0-.479-1.347,1.6,1.6,0,0,0-1.216-.508,1.688,1.688,0,0,0-1.406.648,3,3,0,0,0-.508,1.884v4.907h-3.191V131.006h3.191v.918a3.777,3.777,0,0,1,2.952-1.217,3.584,3.584,0,0,1,3.272,1.7,4.225,4.225,0,0,1,3.55-1.7,3.657,3.657,0,0,1,2.732,1.127" transform="translate(-173.856 -130.707)"/></g></g></g></svg>