<?xml version="1.0" encoding="UTF-8" standalone="no"?>
<!DOCTYPE svg PUBLIC "-//W3C//DTD SVG 1.1//EN" "http://www.w3.org/Graphics/SVG/1.1/DTD/svg11.dtd">
<svg width="100%" height="100%" viewBox="0 0 331 37" version="1.1" xmlns="http://www.w3.org/2000/svg" xmlns:xlink="http://www.w3.org/1999/xlink" xml:space="preserve" xmlns:serif="http://www.serif.com/" style="fill-rule:evenodd;clip-rule:evenodd;stroke-linejoin:round;stroke-miterlimit:2;">
    <g id="Artboard1" transform="matrix(0.976804,0,0,0.916343,-1.50856,-28.4747)">
        <rect x="1.544" y="31.074" width="337.953" height="40.229" style="fill:none;"/>
        <g transform="matrix(1.17516,0,0,1.25269,-15.7304,-232.265)">
            <path d="M301.269,218.377C301.269,218.391 301.269,218.405 301.269,218.419C301.269,222.698 297.748,226.219 293.469,226.219C293.431,226.219 293.393,226.219 293.355,226.218C293.303,226.219 293.25,226.22 293.198,226.22C288.982,226.22 285.514,222.751 285.514,218.536C285.514,218.506 285.514,218.477 285.514,218.448C285.514,218.436 285.514,218.424 285.514,218.412C285.514,214.13 289.038,210.606 293.32,210.606C293.356,210.606 293.392,210.607 293.428,210.607C293.48,210.606 293.533,210.605 293.585,210.605C297.801,210.605 301.269,214.074 301.269,218.289C301.269,218.319 301.269,218.348 301.269,218.377ZM299.535,218.413C299.516,215.056 296.749,212.305 293.392,212.305C290.022,212.305 287.249,215.078 287.249,218.448C287.249,221.818 290.022,224.591 293.392,224.591C293.392,224.591 293.393,224.591 293.393,224.591C293.436,224.592 293.48,224.592 293.523,224.592C296.822,224.592 299.536,221.878 299.536,218.579C299.536,218.524 299.536,218.468 299.534,218.412L299.535,218.413ZM293.935,214.619C294.017,214.611 294.1,214.607 294.182,214.607C295.553,214.607 296.682,215.735 296.682,217.107C296.682,217.109 296.682,217.11 296.682,217.112C296.703,218.163 296.023,219.109 295.02,219.424L297.008,222.206L295.057,222.206L293.286,219.606L292.165,219.606L292.165,222.206L290.5,222.206L290.5,214.619L293.935,214.619ZM292.165,218.304L293.718,218.304C294.585,218.304 295.056,217.836 295.056,217.185C295.056,216.497 294.585,216.029 293.718,216.029L292.165,216.029L292.165,218.304Z" style="fill:white;fill-rule:nonzero;"/>
        </g>
        <g transform="matrix(1.02375,0,0,1.09129,160.511,51.4891)">
            <g transform="matrix(1,0,0,1,-154,-17.286)">
                <clipPath id="_clip1">
                    <rect x="0" y="0" width="308" height="34.572"/>
                </clipPath>
                <g clip-path="url(#_clip1)">
                    <g id="g16" transform="matrix(1,0,0,1,-451.422,-761.12)">
                        <path id="path14" d="M470.357,779.2L461.14,761.6L451.422,761.6L451.422,795.269L460.541,795.269L460.541,776.942L467.619,790.458L472.599,790.458L479.677,776.942L479.677,795.269L488.8,795.269L488.8,761.6L479.582,761.6L470.357,779.2ZM547.031,761.116C537.139,761.116 529.12,768.855 529.12,778.402C529.12,787.949 537.139,795.688 547.031,795.688C556.923,795.688 564.942,787.949 564.942,778.402C564.942,768.855 556.923,761.12 547.032,761.12L547.031,761.116ZM547.031,787.129C542.09,787.304 537.989,783.347 537.989,778.403C537.989,773.458 542.09,769.501 547.031,769.676C547.115,769.676 547.196,769.686 547.278,769.687C551.967,769.503 555.906,772.33 556.06,778.164C556.06,778.244 556.072,778.321 556.072,778.402C555.986,783.309 551.939,787.218 547.032,787.133L547.031,787.129ZM509.216,761.12C499.324,761.12 491.305,768.859 491.305,778.406C491.305,787.953 499.324,795.692 509.216,795.692C519.108,795.692 527.126,787.953 527.126,778.406C527.126,768.859 519.108,761.12 509.216,761.12ZM509.216,787.133C504.275,787.308 500.174,783.351 500.174,778.407C500.174,773.462 504.275,769.505 509.216,769.68C509.3,769.68 509.381,769.69 509.463,769.691C515.731,770.474 517.863,772.965 518.244,778.168C518.244,778.248 518.257,778.325 518.257,778.406C518.169,783.312 514.122,787.218 509.216,787.133ZM740.137,761.6L727.032,761.6L727.032,795.269L739.837,795.269C751.099,795.269 759.422,787.861 759.422,778.289C759.422,768.717 751.4,761.6 740.137,761.6ZM740.237,787.333L736.5,787.333L736.5,769.533L740.238,769.533C745.92,769.533 749.956,773.233 749.956,778.433C749.956,783.633 745.917,787.333 740.235,787.333L740.237,787.333ZM706.628,761.12C696.736,761.12 688.716,768.859 688.716,778.406C688.716,787.953 696.736,795.692 706.628,795.692C716.52,795.692 724.538,787.953 724.538,778.406C724.538,768.859 716.518,761.12 706.628,761.12ZM706.628,787.133C698.927,786.86 695.329,777.475 700.873,772.124C706.416,766.773 715.669,770.701 715.669,778.406C715.581,783.312 711.534,787.218 706.628,787.133ZM668.813,761.12C658.92,761.12 650.901,768.859 650.901,778.406C650.901,787.953 658.92,795.692 668.813,795.692C678.706,795.692 686.723,787.953 686.723,778.406C686.723,768.859 678.7,761.12 668.813,761.12ZM668.813,787.133C661.112,786.861 657.513,777.476 663.057,772.124C668.6,766.773 677.853,770.7 677.853,778.406C677.764,783.311 673.718,787.217 668.813,787.133ZM590.603,780.887L577.146,761.6L567.429,761.6L567.429,795.269L576.647,795.269L576.647,775.309L590.602,795.269L599.818,795.269L599.818,761.6L590.6,761.6L590.603,780.887ZM642.427,761.6L636.3,781.32L630.47,761.6L623.743,761.6L617.913,781.32L611.784,761.6L601.317,761.6L613.027,795.269L621.249,795.269L626.831,776.799L632.463,795.269L640.685,795.269L652.4,761.6L642.427,761.6Z" style="fill:white;fill-rule:nonzero;"/>
                    </g>
                </g>
            </g>
        </g>
    </g>
</svg>
